<svg xmlns="http://www.w3.org/2000/svg" viewBox="0 0 2048 2048"><path fill="#a25524" d="M889 163c23 14 29 40 36 64l1 2q11 38 14 76l1 10 8 101 6 71v5l1 10v3l1 15 5 53 5 54v6l3 30v2l1 14 4 46 1 7 1 9 2 23v2l3 34 2 24v3l2 15v9q0 4 2 7v-3a1127 1127 0 0 1 10-98l4-42 1-3 1-15 5-37 2-21v-2l7-61 7-70 1-11 1-11 2-14v-4l4-27 1-6c4-26 10-56 29-76h2l1-2q1-4 6-5l2-2q13-6 27-2 21 8 29 29c12 28 15 61 19 91l3 27 1 7 8 63 1 8v3l17 124 2 14 3 23 1 7 1 9 1 3q0 7 3 14l3-7v-3l1-2v-3l1-9 2-12 1-3 9-51 11-62 4-16q5-37 24-68l3-5q11-21 32-31 16-4 31 4l11 10 2 3q11 14 15 31l1 3 5 20 2 6 6 27 5 31 2 9 1 2 2 16 13 54 1-2 4-7 2-3c6-11 6-11 10-15h2l1-2 6-8 2-1 15-13 2-1q11-9 24-15l3-1c24-11 52-9 78-9h14q50-3 97 12l2 1q25 10 46 27l6 6 10 10 2 2 13 19 1 2c18 29 24 61 27 94v3q2 35 2 69v103l4 1h5l3 1q26 3 43 25c17 26 15 57 15 88v14c0 66 0 66-16 91h-2l-1 2c-6 11-19 15-30 19l-14 2h-7v212q1 30-4 59v3l-6 23-1 3q-4 13-11 24l-3 5-6 11 28 6 6 2 26 4q26 0 47 13l2 1 10 7v2l2 1 9 5 3 2 3 2 6 4c26 17 26 17 29 31q2 13-5 24l-1 1h-2l-1 3c-17 11-41 4-59 2l-12-2-17-3h-2l-6-1-6-2-38-10-4-1-11-4-4-1-26-9-2-1-19-7-26-10 2 2c13 14 14 29 14 48v122l1 16v21c0 13-1 27-11 37s-24 10-38 10-28-1-38-11l-15-19-5-9-2-2-11-16-3-5-2-2-13-22q-19-32-40-60l-4-6-16-20-9-12-2-1-5-9-4-2-2-1-8-1H704l-34-1h-52c-9 1-14 1-20 8l-2 3-2 2-12 15-4 6-16 22-6 8-15 23-2 3-25 42-2 3-27 37c-8 11-15 22-29 26-16 3-41 5-55-5q-12-10-14-27v-20l-1-11v-145c0-18 1-30 14-43l5-6q-11 4-20 9l-13 5-2 1-34 12-4 1q-36 12-73 20h-3q-32 8-64 8l-3 1q-11 0-20-7-9-10-8-24 2-13 12-21l15-11 17-12 11-7 5-4 5-3q14-10 33-12l7-1 7-1a461 461 0 0 0 162-52l7-4q27-14 53-30l8-5 11-7 27-19 11-8q15-9 27-21l8-6 15-12 3-3 2-1q4-5 6-4l1-3 5-4 14-13c9-8 9-8 12-8l1-3 3-3 2-2 3-2 5-4 3-3 12-10 3-1 1-3 5-4 3-3 3-2 4-3 4-2v-2l4-3 7-5q28-23 60-41l2-1q44-28 93-45l2-1 14-4 5-2q60-19 123-19h21q33-1 66 4h4l35 7 3 1a397 397 0 0 1 84 28l27 13 11 5a224 224 0 0 1 38 23q30 18 55 40l8 7 27 23 11 9 2 2v2l2 1 7 5 12 11 2 1v2l2 1q4 1 7 6l3 2 3 3 24 20 11 8 2 2v2l2 1 8 5 22 17 8 5c38 30 38 30 84 41q15-2 25-14l6-11 1-2q6-13 7-26v-3l2-26v-3l1-59v-139l-3-1-2-1-9-3q-28-7-44-31c-11-24-10-49-10-74v-56c1-20 5-40 20-54q18-14 40-18l7-2q3-75 0-151v-3c-2-30-10-61-33-82q-23-19-53-25l-2-1q-23-3-47-2h-41q-5 2-8 6l-2 4-1 2-1 2-1 3-4 11c-14 36-28 60-63 78l-2 1q-11 6-24 5h-3q-15 0-27-11l-5-6-2-3q-17-25-22-55l-1-4-18-83-16 91-5 29-2 9-10 45-1 3-8 20-1 2q-11 27-37 37-16 5-31-1c-18-10-26-27-32-46a235 235 0 0 1-10-49l-1-11-2-8-2-15-10-65-4-30-14-105-5-35h-1v4l-1 4v3l-2 15-4 37-2 18v4l-2 25-2 19-2 19-4 34-2 23-1 4-1 16-2 12v7l-1 3-1 8-1 7v6l-3 28-2 21-2 16-2 25c-15 141-15 141-39 162q-15 9-34 7-17-4-27-20-15-26-18-55l-1-4-2-25-2-15-2-25-1-4-1-11-1-20-1-3-3-36-2-23-1-11-2-26-4-44-2-26-2-23-2-20-2-28-2-24-2-30v-2l-1-6v-6l-2-14v-6l-1-10-4-56-1-3-1-16-1-12v-7l-1-3-1-3-4 39-18 178-2 22-3 31-11 95c-11 118-11 118-39 144q-15 11-35 8-25-4-42-22c-15-21-20-47-24-72l-1-2-15-107v-2l-3-26-5-35-4-32-2-18-1-7-1-6-1-7v-2q-1-6-3-10l-4 23-9 45-3 14-14 76-2 9-10 31-1 2q-9 24-32 34c-16 6-32 1-47-4l-4-2q-12-3-22-10l-2-1c-17-12-25-33-31-52l-1-3q-14-46-22-93v-3l-3-16q-3 2-5 6l-9 12-2 2-8 6-1 3-6 4-2 2-15 7-2 1-20 4-4 1q-23 3-47 2h-43q-21 1-41-6l-3-1-26-11c-27-10-27-10-33-22q-4-11-1-22 6-12 18-17 14-4 29-3h4l13-1c49 3 49 3 92-13h2v-2h2l1-2 4-6q11-17 17-36a353 353 0 0 1 30-65l2-3q10-13 26-16c24-2 41 11 59 25l5 3 3 2v2l2 1c16 8 26 27 32 44l3 9 1 4 20 85 3-13 1-3v-2l1-6 1-8 13-68 10-59 1-3c14-78 14-78 33-100l2-3q9-12 24-14 19-1 33 13l9 8 3 4q15 15 25 32l2 3q7 12 11 26l1 3q10 40 13 80l4 30 3 17v4l6 44 2 16 3 24 1 3 1 14 6 43h1l6-53v-2l3-30 1-8 2-9v-6l1-12v-2l2-16 6-58 2-20v-2l6-57 2-26 2-19v-2l1-6 11-123 3-22c9-88 9-88 33-111q16-13 35-6m772 927v27l5-2q10-3 22-4h3q16-1 30 5h3v-23h-7l-15 2h-2q-17 1-32-3zm-692 195h-2l-47 8c-24 4-24 4-45 14v55q5 2 8-1l3-1 3-1q49-19 102-23l5-1 1-6v-34q1-6-2-12zm84 0-1 13v3l1 34 18 2q49 5 93 24 6 3 11 1v-51q0-2-3-5l-4-2h-3l-3-1-2-1-44-12-6-1-27-4h-4c-14-2-14-2-26 0m-256 56-3 2-4 1-3 2-24 15-3 2-9 6-13 9-41 31-3 2v2l-2 1q-6 2-9 8l-1 18v6l1 14v43l4-2v-2h2l3-3c11-13 11-13 15-15v-2h2v-2l2-1 9-7 15-14 8-6 22-18 2-2 28-20 6-4 2-2 3-3v-57l-1-5q-5 0-8 3m446-3-1 8v27l-1 13v3c0 8 0 8 3 14l8 5q27 17 50 37l2 1 31 29 4 3 3 1 1 3 4 3 13 14 7 5 1-58v-6c0-10 0-10-4-20l-4-3-3-2-2-2-7-6-11-9-2-2-26-19-16-11-6-4-21-13-3-2c-10-6-10-6-20-9m-295 86h-2q-36 8-68 24l-3 2v126l2 4 7 1h109l4-1v-156l-1-5c-10-7-37 3-48 5m105-3-1 8v101l1 51h116l5-2 1-8v-69l1-17v-26c0-6 0-6-3-11l-3-1-2-1a344 344 0 0 0-103-27l-3-1h-5zm-267 83-9 7-2 1-14 10-2 2v2h-2q-4 2-7 6l-25 21-4 4-7 7-9 8-2 2-2 2-2 1-1 4h105l3-1v-25l1-12v-44l-1-8c-7 0-15 8-20 13m457-13q-2 5-1 10v73l1 7h107q-3-7-8-10l-6-5q-3-5-9-9l-9-8c-7-8-7-8-15-12v-2l-5-4-3-3-3-2-3-2-16-13-6-4-5-4-2-1c-8-7-8-7-17-11m-655 13-2 2-15 12-21 16-3 2-25 18-2 1-19 13-17 13h110l3-1v-81q-5 1-9 5m864-4v75l1 6h111l-7-6-2-1-3-2-28-19-12-9-17-11-2-2-1-1-5-4-4-3-2-2-3-2-6-5-2-1-13-11zm-969 183v66h2l3-5 2-3 3-3 4-7 2-3 21-29 6-8 1-2q3-3 4-7h-44zm1036-1-1 2 13 18 26 35 3 5 1 2 4 5h2v-63l-1-4h-47"/><path fill="#2e3748" d="M889 163c23 14 29 40 36 64l1 2q11 38 14 76l1 10 8 101 6 71v5l1 10v3l1 15 5 53 5 54v6l3 30v2l1 14 4 46 1 7 1 9 2 23v2l3 34 2 24v3l2 15v9q0 4 2 7v-3a1127 1127 0 0 1 10-98l4-42 1-3 1-15 5-37 2-21v-2l7-61 7-70 1-11 1-11 2-14v-4l4-27 1-6c4-26 10-56 29-76h2l1-2q1-4 6-5l2-2q13-6 27-2 21 8 29 29c12 28 15 61 19 91l3 27 1 7 8 63 1 8v3l17 124 2 14 3 23 1 7 1 9 1 3q0 7 3 14l3-7v-3l1-2v-3l1-9 2-12 1-3 9-51 11-62 4-16q5-37 24-68l3-5q11-21 32-31 16-4 31 4l11 10 2 3q11 14 15 31l1 3 5 20 2 6 6 27 5 31 2 9 1 2 2 16 13 54 1-2 4-7 2-3c6-11 6-11 10-15h2l1-2 6-8 2-1 15-13 2-1q11-9 24-15l3-1c24-11 52-9 78-9h14q50-3 97 12l2 1q25 10 46 27l6 6 10 10 2 2 13 19 1 2c18 29 24 61 27 94v3q2 35 2 69v103l4 1h5l3 1q26 3 43 25c17 26 15 57 15 88v14c0 66 0 66-16 91h-2l-1 2c-6 11-19 15-30 19l-14 2h-7v212q1 30-4 59v3l-6 23-1 3q-4 13-11 24l-3 5-6 11 28 6 6 2 26 4q26 0 47 13l2 1 10 7v2l2 1 9 5 3 2 3 2 6 4c26 17 26 17 29 31q2 13-5 24l-1 1h-2l-1 3c-17 11-41 4-59 2l-12-2-17-3h-2l-6-1-6-2-38-10-4-1-11-4-4-1-26-9-2-1-19-7-26-10 2 2c13 14 14 29 14 48v122l1 16v21c0 13-1 27-11 37s-24 10-38 10-28-1-38-11l-15-19-5-9-2-2-11-16-3-5-4-6-4-5-2-3-1-2 1-3 1 2 12 17 12 13-8-12-9-17-2-2-10-13-6-9q-12-22-29-42l-6-8c-18-28-18-28-43-50H613q-9 0-14 6l-2 2-2 2-14 17-6 8-25 33-2 3-18 26-14 20-9 14-2 3-16 28c-18 29-18 29-29 34l-4-1 2-1 3-1 1-3-3 1 2-4 3-3 5-7 2-2 5-10 3-6 2-4 1-2-2-1q-7 12-11 24l-2-1-1 2c-7 13-7 13-14 15h-36l4-1v-2q1-6 6-10l2-1 2-4h2l-5 12-2 3-1 2h16c9-1 9-1 16-4l3-4 1-2 2-7h-15c-10 0-10 0-15-2v-2l-2-1q-10-4-14-15l-1-2 1-2-4 1v2l-3 1q-5 1-8 7l-1 1h-1l-1-23v-21l-1-17v-103c-1-22-1-22 6-31l2-2 1-4v-3l-7 4v-5l7-7 12-12q13-12 30-13h3q-3 4-7 5h-3l-2 1-3 1-5-1v2l-6 1v2l7-3h4q8 0 15-5 6-4 11-3h5q-1 4-4 5l-2 1-3 1-2 1-3 1-9 2 2 2 2 3-1 4 1-2q8-7 17-12h2l1-3 3-1 1-2h2v-2h-16l-3-1h-3q-3 1-5-2l9-1h4q14 1 29 9l3 1 15 7 12 6 3 1q16 6 34 4h24q3 0 5-3l1-3 3-3q4-2 5-5l2-3q3-5 3-11l1-3v-13l-2 1H497c-21 0-21 0-38 9l-6 3-3 2-3 1-3 2c-28 15-28 15-33 15v-2l3-1 21-12 2-1 10-8 5-5h2v-2l4-1-1-2-2 1-32 18-3 1-4 2-4 2-2 1-2 1h-5l26-13-8 4-3 1-14 7-3 1-5 3-3 1-2 1-4 1v3l-7 2v2l-3 1-3 1-4 2-11 4-44 16-9 3q-32 10-66 16l-3 1-22 1 8-3h7c26-3 26-3 50-15l-65 4 22 1v1h-3l-5 1h-2q-6 1-10 3v-2c-7 0-7 0-13 2l-3 6-3 3v-3l1-4v-4l-2-6 1-7h-2v2l-6-1 2-1v-2c5-4 5-4 9-4v2l1 3v3l1 2 2 1v-2l2-2-4-3q6-3 11-3l5-1h3q34-5 68-14l6-2a522 522 0 0 0 144-64l6-4 28-18 7-4 43-31 2-2 41-33 10-8 15-13 23-20 23-21 22-19 15-12 12-10 30-22 13-9 6-4 42-24q-5 0-8 3l-3 1-3 2-4 2-36 23-11 7-2-1 50-34 3-1 9-5q-5 1-10 4l-2 1q-21 12-40 27l-6 4-40 30a444 444 0 0 0-54 46l-8 7-32 29-18 14-12 10-23 19-3 2-20 15-6 4q-39 27-80 50l-8 4q-57 30-118 49l-3 1-39 10-3 1-33 6h-6l-1-5h8v2l15-3 5-1 38-10 5-2h3l8-3 3-1 6-2a588 588 0 0 0 144-66 513 513 0 0 0 84-57l9-7 18-15 9-7a561 561 0 0 0 57-49l21-19 18-16 3-2 20-16 12-10q17-13 34-24l2-2 30-18 6-4 45-23 26-10 3-1 3-1 4-3 5-2 13-4q17-5 35-9l5-2 24-4 4-1 7-1 9-2q37-5 75-4h3a435 435 0 0 1 87 7l51 11 3 1q24 7 48 17l4 2 37 16 3 1 40 23 4 3 10 6 2 1 28 20 6 4 21 16 6 5 20 17 18 16 29 26 7 5 12 11 6 5v2l2 1 8 6 2 1 34 28 3 2 24 18 5 3 23 15 8 5 28 16 3 1c10 5 10 5 21 7l-2-1q-9-2-17-8l-10-3-7-4v-2q12 3 23 9l6 3 3 2q13 5 25 2l-1 2 14-8 7-3 2 2-4 4h-2v2h-3l-6 3v3l-9 2-4 1-1 2-4 2q-6 0-12-2v3h14l1 2-10 1q12 1 22-5l-2-2 6-2 3 2-1 1 4 1 7-4 9-5h-6l2-3 1-7 5-5 4-7 1-2q5-10 8-22l1-2q1-8-2-15v3q-3 27-19 47h2l-1 2-3-1-1-2h2v-2q0-4 3-7 11-19 11-41l-1 4q-3 29-22 50l-2-1 1-1q8-7 11-17h2v-2l3-10q7-34 8-68v-8l1-63v-74l1-14v-22l1-4v-30h1v-15l-1 5q-1 7-6 10l-1 1h-5v-34q1-8-2-16l-6-2-7-4v-3h2v-2h-3v-2h-2v-3h3l1-4v-4l1-3 4-15h2l-1-2 1-6 5 2v2h2v-4h2v-2l-4-1v-2q9-2 18-1h4q16-1 28 9 14 16 13 37l-4-10-1-3-1-5h-2l1 3 1 5v2l1 3 1 2 1 21v282l-1 18v11-4l1-4v-5l1-2 2-5q1 18-3 35 4-18 5-37v-226l-1-28v-17l-1-11v-24h1l2 14v9h1l1-5 4 4v6h4l-2-1v-12q5 3 6 8v9h2v-3l-1-13 2-1h2l3-1 3-3h-2l-1-5h-2l-1 3-7 1v2l-3 1-1-3h-5v2h-2v-4l3-1 1-2 7 1v-2h2v-5l-5-2v-3h-2v-2h2v-2l2-30h-2l2-7h8v-28l-1-13v-27l1-5h5q5 18 3 37v40l-1 17v16l-1 12 2 1q5-10 5-22v-36l1-33h1v7l1 2v8l1 9 1 2v14l1 6 1 12v-9l1-3v-4l1-6v-32q0-16-2-32v-3l-2-6q-2-2-5-2l-1-2 1-2-3-1-5-5q-4-2-10-3h-5v-11l-3-12-1 3h-2v6h4v18h2l1-3v4h2l5 3 1 4-1 2-14-3v-4h-2v-28l1-7h3l13-3-1-4q17 2 29 12l2 3-11-5 2 1q9 7 15 17l2 3q5 8 6 17l1 2q3 20 2 40v28l-1 53v3q-2 19-13 33l1-2 6-9 1-2q7-14 7-28l2 2 2-13v-74c1-24-3-49-20-68a69 69 0 0 0-39-17h-3l-7-1v-81l-1-23v-11l-1-49v-2l-5-44v-3q-4-26-18-50l-2-4q-7-15-19-27l-2-4-3-1-5-5c-30-29-76-44-117-44h-66a138 138 0 0 0-129 81l-3-3-1-3v-3l-1-4-1-4-8-38-2-8-19-96-1-6c-6-19-13-39-30-51q-14-7-27-5c-17 5-26 19-34 33l-1 2-5 7-1 3q-11 19-15 41l-1 5a1683 1683 0 0 0-25 136l-1 5-1 3-3 19-1 9-5 22h-2l-14-88-4-35-4-24-2-21-17-128-2-16-2-16c-5-56-5-56-34-102q-12-7-27-5-18 6-27 24c-24 41-24 96-29 142v3l-2 21-5 40-5 53-4 41-9 77-1 8-8 79v7l-1 11-1 5-2 23-1 5h-2l-2-27-4-42v-9l-6-58-5-57-1-7-7-94-1-13-4-37-6-85-2-26-5-54-3-38v-6q-2-50-15-98l-3-9c-9-35-9-35-33-61q-11-4-23-1-20 11-26 33c-13 38-16 79-20 119l-2 16-3 28v5l-1 14-1 9-7 74-9 93-3 35-6 50-6 61-1 11-7 67-3-9v-7l-1-6-1-3-1-9-2-15-2-15-4-27-7-58-1-10-1-10-1-4-4-27-2-16-1-5v-2c-6-53-13-98-49-139l-2-3-7-7-2-2q-11-13-28-14-16 1-28 13c-18 20-23 48-29 73l-1 4q-11 51-18 104l-9 45v4l-2 14-3 13v4l-4 16q-3-4-3-9l-4-20-1-3-2-9-1-3-12-50-1-3q-4-19-14-36l-2-3q-11-16-29-27l-5-3c-15-11-32-23-51-21-17 4-27 17-36 31q-10 20-17 41c-20 56-20 56-42 66-14 6-30 5-45 5h-8l-37 1h-5c-15 0-31 0-43 11q-7 8-6 20 0 10 8 16c14 11 34 17 50 23l3 1q13 6 26 6h44c46 2 46 2 89-9l3-1q13-8 24-18l2-2q10-10 15-24l2-4 4 19 1 3 7 34 12 54 1 2 3 10 1 3 1 3-1 6c-13-33-19-69-26-104v-3l-3-16q-3 2-5 6l-9 12-2 2-8 6-1 3-6 4-2 2-15 7-2 1-20 4-4 1q-23 3-47 2h-43q-21 1-41-6l-3-1-26-11c-27-10-27-10-33-22q-4-11-1-22 6-12 18-17 14-4 29-3h4l13-1c49 3 49 3 92-13h2v-2h2l1-2 4-6q11-17 17-36a353 353 0 0 1 30-65l2-3q10-13 26-16c24-2 41 11 59 25l5 3 3 2v2l2 1c16 8 26 27 32 44l3 9 1 4 20 85 3-13 1-3v-2l1-6 1-8 13-68 10-59 1-3c14-78 14-78 33-100l2-3q9-12 24-14 19-1 33 13l9 8 3 4q15 15 25 32l2 3q7 12 11 26l1 3q10 40 13 80l4 30 3 17v4l6 44 2 16 3 24 1 3 1 14 6 43h1l6-53v-2l3-30 1-8 2-9v-6l1-12v-2l2-16 6-58 2-20v-2l6-57 2-26 2-19v-2l1-6 11-123 3-22c9-88 9-88 33-111q16-13 35-6m80 1122h-2l-47 8c-24 4-24 4-45 14v55q5 2 8-1l3-1 3-1q49-19 102-23l5-1 1-6v-34q1-6-2-12zm84 0-1 13v3l1 34 18 2q49 5 93 24 6 3 11 1v-51q0-2-3-5l-4-2h-3l-3-1-2-1-44-12-6-1-27-4h-4c-14-2-14-2-26 0m-256 56-3 2-4 1-3 2-24 15-3 2-9 6-13 9-41 31-3 2v2l-2 1q-6 2-9 8l-1 18v6l1 14v43l4-2v-2h2l3-3c11-13 11-13 15-15v-2h2v-2l2-1 9-7 15-14 8-6 22-18 2-2 28-20 6-4 2-2 3-3v-57l-1-5q-5 0-8 3m446-3-1 8v27l-1 13v3c0 8 0 8 3 14l8 5q27 17 50 37l2 1 31 29 4 3 3 1 1 3 4 3 13 14 7 5 1-58v-6c0-10 0-10-4-20l-4-3-3-2-2-2-7-6-11-9-2-2-26-19-16-11-6-4-21-13-3-2c-10-6-10-6-20-9m-295 86h-2q-36 8-68 24l-3 2v126l2 4 7 1h109l4-1v-156l-1-5c-10-7-37 3-48 5m105-3-1 8v101l1 51h116l5-2 1-8v-69l1-17v-26c0-6 0-6-3-11l-3-1-2-1a344 344 0 0 0-103-27l-3-1h-5zm-267 83-9 7-2 1-14 10-2 2v2h-2q-4 2-7 6l-25 21-4 4-7 7-9 8-2 2-2 2-2 1-1 4h105l3-1v-25l1-12v-44l-1-8c-7 0-15 8-20 13m457-13q-2 5-1 10v73l1 7h107q-3-7-8-10l-6-5q-3-5-9-9l-9-8c-7-8-7-8-15-12v-2l-5-4-3-3-3-2-3-2-16-13-6-4-5-4-2-1c-8-7-8-7-17-11m-655 13-2 2-15 12-21 16-3 2-25 18-2 1-19 13-17 13h110l3-1v-81q-5 1-9 5m864-4v75l1 6h111l-7-6-2-1-3-2-28-19-12-9-17-11-2-2-1-1-5-4-4-3-2-2-3-2-6-5-2-1-13-11zm-969 183v66h2l3-5 2-3 3-3 4-7 2-3 21-29 6-8 1-2q3-3 4-7h-44zm1036-1-1 2 13 18 26 35 3 5 1 2 4 5h2v-63l-1-4h-47"/><path fill="#aba19c" d="M1508 637h54l39 3 4 1q47 8 84 40l5 5c24 20 38 54 44 85l1 3 5 43v8l1 46v115h7q27 2 47 23 19 30 16 66v71l-1 3-1 11-2-1v3q-3 22-16 37 1-7 5-11 7-12 7-26v-3q2-27 1-52v-29c0-19 0-19-3-39v-2q-3-13-12-23l-2-5-2-1-6-4-2-2-1-1 2-1 7 5 1-1q-12-10-28-12v3l-5 2h-2l-9 1-1 35h2v4h3l11 3-2-8h-2l-6-2v-18h-4v-6h2l1-4c3 6 3 6 3 10v14h2q12-1 19 7l2 4 1 2 2 1q4 1 4 4l1 3v3q2 13 2 26v27l-1 14v8l-1 2v10l-2-1-1-5v-9l-2-24-1-7-1 20v37q0 11-6 20l-3-1v-2l1-14v-20l1-14v-52c0-10 0-10-2-19l-5-2v73l-8 1-2 6h2l-2 32h-2v2h2v3l5 1v6h-2v2h-7l-1 3-3-1v4h2v-2h5l2 2h2l-1-3 6-1h2l1-2h2l1 5 3-1-4 5-7 1 1 16h-2q-2-4-2-9 1-3-3-7l-1 11 3 1-3 1-3-3-1-3v-2l-1-2-1 7-3-1-1-13v21l1 8v2l1 12v253c-1 29-1 29-7 38v-3l2-11v-5l1-16v4l-1 4v5l-1 2-2 5v-17l1-19v-265a189 189 0 0 0-4-49h2l5 15q0-19-13-34-10-9-24-8h-25v2l4 1v2h-2v4h-2v-2l-5-2v8l-2 1-2 8-1 5v2l-3 10h-3v3h2v2h3v2h-2v3l2 1 3 1 2 1q4 1 7 5 3 10 2 21l-1 27q6-1 10-6l2-8v-2l1-5h1v23h-1v30h-1v28l-1 72-1 51v34q-1 28-6 55l-1 4-5 18h-2v2q-3 8-10 15c17-13 20-38 23-57h1q1 25-11 46l-4 10h1l1-2 4-6q11-21 14-46h1c5 18-1 33-10 48l-5 7-5 12 5-2v2l-5 3-3 2-3 2-3 2-5 1-2-1v-2l-1-2-5 2 2 2q-11 8-23 6l-2-2 11-1-14-1v-3l2 1h12l3-4 6-1 6-2 1-3q4-4 7-3l2 1v-2l4-2v-3l-14 8q-5 4-11 4l-2-1 4-2-3 1q-16 1-29-8l-2-1-9-5-11-4q6 6 13 7l16 7 9 4v1c-23-1-46-18-65-30l-6-4a442 442 0 0 1-56-42l-7-5-9-7-2-2-5-4-10-8-3-2v-2l-2-1-5-4-2-2-2-1-15-14-2-2-3-2-52-46-8-7-17-13-6-4q-28-22-60-41l-3-2q-38-24-82-39l-8-3q-85-32-178-31h-3a470 470 0 0 0-141 19l-6 2h-3q-15 4-28 11l-15 5-12 5-2 1-38 19-3 2q-19 10-39 23l-2 2-17 11-2 1-25 19-9 7q-12 8-21 18l-14 11-7 7-15 13-25 22-7 6-22 19-16 13-11 9-51 38-4 3q-23 16-48 30l-19 12q-40 23-84 39l-7 3-34 11-9 3c-51 16-51 16-69 16v-2h-8l2 4 36-6h2l41-11 3-1a534 534 0 0 0 91-36q40-18 77-41l8-5 19-13 11-8q35-24 68-52l9-8 13-11 8-6 10-10 8-7 21-18 11-10 40-32 3-2 10-8 28-20 10-7q17-13 36-22v2l-5 3-4 3-2 1-36 23-2 2-12 8 23-14 29-18 3-2q7-5 14-5-3 4-8 6l-3 1-3 2q-21 11-41 24l-8 6q-15 10-30 23l-9 7-52 44-9 8-16 14-19 17-40 33q-19 16-42 31l-7 5q-12 10-26 18l-2 2-44 26-3 2q-42 22-87 40l-3 1a467 467 0 0 1-106 27l-7 1h-5l-7 2 4 4-3 1v2l-3-1-2-10-3 2-5 2v3l4 1v-2h2v3q0 4 2 7l-1 13 1-2 1-2 1-2 3-4 5-1h3l5 1-1 2 2-1c3-2 3-2 13-3l-23-1v-1l15-1 5-1h9l43-3c-13 15-44 16-63 18q11 1 21-2h3q21-4 40-9l3-1a502 502 0 0 0 65-21l3-1 18-8 9-2v-2l7-2v-3l16-8 3-2 10-5 4-1 3-2 3-1 2-1 2 1-2 1-7 4-3 1-3 2-2 1-5 3q20-10 40-21l2-1 3-2 6-2-1 3-4 1v2l-3 3-6 4c-7 7-24 20-34 20v2a221 221 0 0 0 42-21l5-2 2-2 2-1 2-1 4-3q8-4 16-3h116v13q0 13-9 22l-2 2-2-1-1 3q-1 4-4 6h-33c-22 0-39-9-58-18q-17-10-34-10h-4l-4 1 25 2v2h-2l-1 3-3 1-2 2-7 5-12 10-2-1 2-4-1-1-2-4 2-1 8-3 3-1 3-1 3-1 4-4q-10 1-19 6-6 5-14 3-4 0-7 3l-3-1 3-3h4v-2h3l7-2 5-2h2l2-1q-14 0-25 7l-5 2-1 2q-4 8-13 13l-7 9v2l2-1 5-2 1 6-4 6q-6 8-5 19v98l1 16v40l1 18 1-2 2-2 2-2q2-2 5-2h2v-2l4-1v2q3 10 11 15l3 2 4 3 10 1h3l3 1h12q0 8-7 15-6 3-11 2h-20l5-12 2-3 1-2q-3 2-4 5h-2l-1 2-5 10h28l10-2 2-4 4-6 2-4 1-2 2 1 1-3c5-15 5-15 10-20h3l-5 12-2 4q-6 12-15 22l1 1-1 4q16-9 22-25l5-8 2-4 12-19 4-7 3-5 2-3 8-10 8-13 6-9 2-2q16-25 35-48l9-12c20-26 20-26 26-29h76l60-1h698c7 0 13 7 17 13l6 7 9 11 24 31 16 23 3 4 5 7 1 2 2 4 3 5 2 2 5 7q9 12 16 26l12 19 12 20-2 1-1-2-21-31-2-2-7-10c-14-20-14-20-17-29l-8-13-2-3-4-6-7-10-14-20-3-4-26-33c-7-9-7-9-15-16h-361l-122-1H618c-9 0-9 0-17 4l-3 4-3 3-21 27-5 8q-15 19-28 39l-1 2-14 23q-14 25-33 49l-8 12q-11 19-29 27l-10 1h-27q-12 0-21-8-10-13-9-29v-176c-1-18-1-18 4-25l1-2 13-14 7-8-12 4-3 2-3 1q-30 15-62 25l-3 1a575 575 0 0 1-128 28q-16 2-30-4-9-7-10-16-2-11 4-21l2-2 10-9 2-2 5-3 37-25 4-3q15-11 34-13l11-1h2l21-4 5-1q26-4 51-13l9-3 6-2 3-1 14-5 8-3 31-14 3-1q45-21 86-49l5-3 17-12 10-7 45-34 6-5 2-2 8-6 12-11 4-1v-2l5-4 14-12 40-36 10-9 12-9 4-3 14-11 2-1q29-22 59-39l2-1 28-15 5-2q35-17 73-29l3-1a248 248 0 0 1 45-10l15-3h6l3-1 15-2h5l23-1h23q37-1 73 5l5 1 13 2 4 1q29 5 56 14l3 1 26 10 6 2a466 466 0 0 1 73 38l7 5a444 444 0 0 1 72 54l3 3 7 6 8 6 19 18 7 5 24 22 3 3 28 23 3 2 21 16 6 5q36 28 77 49l2 1q17 9 36 2 19-9 25-28c8-21 8-45 8-67v-41l1-33v-116h-3q-32-5-53-29-9-15-11-33v-2l-1-17v-64c0-33 0-33 5-46l1-2q8-22 29-33 9-4 20-6l3-1h9V870c1-33 1-33-3-65l-1-3q-5-30-25-52l-2-2c-19-22-54-30-82-31h-72l3-6 1-3q7-12 21-16 13-2 25-2h6l13 1h35c32 0 62 4 88 25v2l2 1c18 10 28 32 33 50q9 35 9 68v56l1 20v68-113l-1-43v-19h1q3 30 2 59v13l1 20v132l-2-1v-33l-9 1v-2h2l-1-6h3v-2h-4l1 6-3-1-1-5h-4l1 1q5 11 3 22v4c0 17 0 17-4 23l-4 1 4-7 1-9v-11c0-11 0-11-4-22h-2l-5 1h-5l-9 3-3 2-4 1-2 1-11 7q1-5 7-7l2-2 2-1c-14 5-22 18-29 31l1 1 1-3h4q3-5 3-11h4q0 6-3 11l-2 7-1 2q-6 23-4 47v82l-4-2v-3l-3-1-1-6v-9l-1-10v-22c-3 50-3 50 15 95q8 7 18 12v2l2 1h2l3 1 5 2q10 3 19 2c7-12 7-32 4-45q-3-5-9-7-7-3-10-11l-2-19v-4c0-12 0-12 3-17q15-9 33-7h4c12 0 18 2 28 8l1-34-2-1 3-1 2-4 3-4q9-13 9-29l-3 9-1-12V886l-1-66v-3q-1-21-5-42l-1-3q-13-64-67-102h5l2 1 2 2 2 1-7-5 3-1-6-3 1 2-14-6 2 2-13-4-6-2q-9-4-19-5l-8-2q-24-6-49-4h-54c-20-1-20-1-38 6l-4 1-9 4h-2v-4l-2 2-3 2-3 3-7 5 1-4-5 4q2-5 6-7l9-8q-30 18-43 50l-1 4-5 15-4 7v2l-3 5-4 6-6 1-6-18-1-3-1-3-1-2 1-5 3 9 2-4c17-31 45-61 80-72q25-5 50-5"/><path fill="#cd9c75" d="M892 166c19 14 25 39 31 60l2 5 4 17 1 2v2l1 2q5 23 7 46v3l3 33v7l2 12v7l8 93 1 16 1 14v7l1 3v11l3 39 3 28 3 29 4 54 4 52 1 12 7 70v4l3 30v3l4 60h2v-2l5-54v-4l15-142 3-28 2-16v-4l3-27 4-37 7-65 1-13 7-54v-4q4-36 22-68l2-1-4 10-10 30v3q-6 21-7 44l-1 5-1 12-1 14-9 88-1 7-6 58-4 40-4 33v6l-1 3-1 5v7l-4 38-5 41-1 5q-3 27-3 53h1l1 7 2-14v-4l3-32 5-42 2-21v-2l4-36 1-3 4-38 2-20 2-18 1-11v-5l5-40v-5l1-3 5-49 2-22 4-43 1-9q4-40 16-79h3l1-6-3 1 2-5 3-1 2 2-1 3c-27 63-26 145-32 213l-3 29-1 12v2l-8 68v2l-4 51v7l-1 3-1 5v7l-1 4-1 9-1 15v3l-1 5-1 13v3l-2 14-1 13-1 5v9l-2 19v5l3 1v6l-1 3-1 2-1 2h2l-2 9-1 2 1 2 1 2-2 5 1 3-1 2-3 9v10q1 9-5 16v2c-5 5-5 5-8 5v-2l-3 1-1-3-3-5-2 4-1-2-3-4-2-8-3-5v-5l-1-9-1-4-2-8v-16l-1 2h-2l-1-5 2-2v-3q0-4 2-6l1 6h1l-1-29-1-5-3-34-2-27-4-43v-6l-13-151-2-20-10-127-2-23-5-70-2-22v-8l-4-39-1-19-3-27-1-2c-3-35-3-35-19-66l-2-1 1 10h-10l-13 2h-6l-3-10h-2l-1 2-5 11q-3 4-2 10v13l-2 1-1-3-6 19v3a424 424 0 0 0-8 58l-1 5v3l-1 3v8-3l2-10 1-4 1-6v-4l3-7 2 1q0 13-4 27a441 441 0 0 0-13 95l-2 21-1 4-1 9-1 16-2 13-5 56-9 86-8 73-9 81-1 12-1 4-2 25v3l-2 15v8l-1 6-2 1-1 6q-2 16-7 32v3l-1 2v2l-3 6-3-1 1-1v-5l3-13c7-19 8-41 11-61l2-13 3-18v-3l1-7-2 4 2-23 4-33 4-46 8-75v-2l3-29v-2l6-59v-4l1-27q-2 4-2 7v3l-1 7v5l-2 15-1 10-6 68-4 37v3l-2 21-1 6-4 28-1 17-5 51-1 7-3 27v3l-1 7-1 4-2 13-2 18q-1 10-6 18l1 3-2 3v-2h-2v3h2c0 13 0 13-2 18l-2-1v-10l1-10-5-1v-2l-3-1 1-2 3 2 6 3-2-2-2-2-3-2q-5-7-5-16l-1-2v-4l-1-7-1-7-2-24-4-38-1-6-1-11-2-15-1-8-1-4v-3l-1-3-1-5-1-5v-6l-1-7-1-11-7-50-2-16-9-71-2-17-1-2-1-10-2-15v-3l-1-3v-2q-2-4-6-5v2l6 38 2 17a2829 2829 0 0 1 19 150l8 54 4 28 4 37 2 14 5 32v2l1 3-1 6-4-14v-3l-5-28-2-17-3-23v-2l-2-10-2-15-2-17-3-22-4-34-1-3-1-13-1-4v-3l-2-12-2-18-5-39-1-4-13-90v-3l-1-14 6 1-2-3h-6l4 28-2 1-1-4v-5l-1-3q0-5-3-11-2-6 0-12 2-11-3-23l1 9-2-1-1-7h-2l-2-3-2-5-1-2-6-10v-2h-2l-2-2q-3-5-10-6v1h-3q-11-1-18 7l-2 1q-9 8-13 20l-3 5q-6 16-10 34l-1 3-10 49v3l-9 53-2 8v3l-5 29q-9 58-22 115l-3 14c-7 33-7 33-14 40h-8l3-2 4-4-3-1q-1-11 4-23l-4-2 3-1-2-2q-6-7-8-15v-2l-2-7-1-4 4 21q-4-4-5-10v-2l-1-5-2-7-12-55 1-5-1-7v-3l-1-3v-3l-4-19-2 1-9-42-2-7-3-17h-1q-1 12 3 23l3 13 5 29 3 17 5 27-4-12-1-6-1-3-3-14-1-2-2-11-2-4 1 3 1 2v8q-3-4-3-10l-1-3-1-4-8-40 4 10v-2l-3-9v-3l-1-3-1-3v-9l5-1-6-20 2 16h-3l-4-17q1-3-2-5l-1-2 1 4v2l2 6 1 4 1 3-1 7v-2q-4-15-12-28l-2-7-2-4h-2l1 2 1 2 1 3 1 2-3 5-1 2-2 1q-10 5-14 15v2h2l3 4 2 3c2 8 2 8 7 13v2l2 1q4 1 6 5l-1 2-3-2h-7l1 4 1 5 1 2v3l1 2v4h2q6 1 10 5 2 5 3 10l1 3 6 27v3l1 3 1 3v8l-4-10v-2l-2-6-1-4-5-19v-3l-1-11-7 2v2h-2l4 16 5 22 1 3v9l2 16 1 3 2 10 1 7 3 14 2 14q7 33 17 65l1 2 6 14 3 5 1 3 2 7q-3 1-5-2l-7-9 1-2 2 2-2-3q-12-23-16-50l-4-19v3l1 9-3-8v-3l-1-5-1-2v-2l-1-2-2-1-2-8v-2l-1-5-2-8-3-15-1-5-3-13q-4 4-5 9-5 9-13 17l-3 3-2 2-2 2a83 83 0 0 1-42 19h-2q-32 5-65 4h-35q-19 1-34-6l-6-2-31-13-2-1c-10-4-21-10-25-21q-2-11 3-21 12-14 31-16h24l14-1h30c30 0 30 0 56-14q16-20 24-45l4-11 1-2c14-39 14-39 28-55l2-2q12-13 29-14c15 0 31 9 43 19l8 6 14 12 2 1q12 8 17 21l1 2q10 19 14 41l1 3 14 60v2l4 16 1 3 4-23 1-7 12-70 1-5 2-8 5-30q6-39 16-78l1-4c6-22 14-47 34-60l13-4h2q15 0 27 10l23 25 2 3q25 31 32 71v2l6 39 1 3 6 53 6 38v4l8 63 5 37 5 37 4-29 5-55v-3l13-118 2-28 10-105 1-3v-4l5-53 1-11 6-60 1-12c11-104 11-104 39-127q15-11 32-2M690 425q0 11 5 21l2 1q0-10-5-21z"/><path fill="#884420" d="M885 422h1l4 50 1 4 4 64 1 3 1 19 2 17v2l1 25 3 31v7l3 28v6l2 22 1 17 1 3 3 40 2 27 1 7 2 16v6l5 54v2l2 19 2 28 2 13 1 10 4 40v3q2 35 21 64l1 2q9 10 22 13 19 2 34-9c25-21 25-65 28-94l4-41 1-11 3-28 14-136 3-26 1-11v-2l1-12 2-15v-3l16-143v-3c1-6 1-6 3-8l2 11v3q6 29 8 58l5 33 2 16 3 20 5 34 1 12 11 73c6 62 6 62 36 114q14 10 31 8 21-5 33-23l7-12 2-3c19-39 22-86 29-128l7-39 1-7 7-33q4 5 4 11l1 3 6 27 6 29 1 5 7 30 1 3c6 22 15 47 36 59q14 7 31 1 10-4 19-9l2-1c30-16 40-43 52-74l4-11 1-8 2-6h-1l-4 9-2-1-5 13q-1-7 3-14l1-3q6-13 15-25-6 4-8 10l-2 3-12 30c-5 15-5 15-10 20v2c-2 10-11 24-19 29l5-9 11-22 1-2 8-22 5-12 2-8-3 8-1 3-7 16c-13 35-13 35-23 46h-2v2l-6 2-4 6q-2 3-5 3-15 1-26-9l-4-5-1-2q-5-9-8-17l-3-6-2-8-1-4-1-2-2-8-3-18h-2l-1 4a851 851 0 0 1-21-106v-2l-8-30h-2l2 14 4 16 4 22 5 26v3l2 9 8 48-2 1-1-6-1-4-2-8-2-5-1-8-4-15-3-10-1-3q-4-18-5-38-3-23-10-46v-10q-1-3 2-5l4-1v3l3-1 5 25h2l1 12 5 1 4-5 7 37 2 11 1 5 1 2 1 9 2 9 1 5 7 32 3 14 2 4 1 7 1 2v10q0 5 2 9l1 2 1 2 1-4h2l1-4-3 1q-3-3-3-8v-6l5 9 2-6h-2l1 4q-5-4-6-11l-2-9-2-3-1-5v-3l-1-3-5-29v-3l-3-15-5-21v-2l-6-29q-5-28-13-55v-3q-5-21-21-34l-13-5v-5q7-2 14 2l7 7 2 2q6 5 8 12l3 1c11 19 13 44 17 66l3 16 5 29 7 38 12 56h2l1 3 6-7c6 8 6 8 7 12q-2 6-8 9l-3 1-2 1-1 7q5 3 9 1l10-6-3 1-5-1v3l-9 2-1-2 8-7 3-4h2v-3h2l1-4 1 2 3 1q3 3 3 7 5 0 6-4l1-2 2-3 1-3 1-3 4-8 1-2 8-23 8-20 2-7-3 1-2 6-3 7-11 34-3-1q2-11 6-21l5-10q3-10 9-19l1-6c2-9 14-18 21-23l8-4 2 1-7 6-2 2-6 4 5-2-1 3 2-2 3-3 2-1q3-4 7-5l-1 5 2-1q6-4 14-6l10-3q9-2 17-2h66l31 1h2l18 4 12 2q9 1 17 6l9 3-3-3 12 5 4 2 2 1-1-2q5 1 8 5h-3l7 5q-5 0-9-4l-1 1 2 1c39 26 58 65 67 110q2 18 3 38v2l1 68v165l3-9h1q1 20-13 37l-4 3 1 1v35l-3-1-4-2-2-1q-10-5-23-4h-4c-14 0-14 0-26 5l-2 2-3 2v20q-1 14 5 24l8 4q4 2 7 8c2 12 3 31-3 42q-4 4-9 3-7 0-14-3l-2-1-8-3v-2l-3-1q-16-8-24-24c-10-22-8-47-7-71v-47h1v3l1 29v41l1 2 1 8 2 1 2 4 2 1-1-2v-84q-1-24 5-47l1-3 4-10v-3l-2 1v2l-4 9-2 1v-2h-2v2l-1 2-2 1c2-13 14-25 24-33l7-3 3 1-2 1-3 2-3 1-5 5 3-2 13-7-2-2 7-1 3-1h9l6-1c6 7 5 18 5 27v3q1 10-4 17l-2 1v2l5-2q3-13 2-26v-4q1-9-3-19l5-1 1 6h1v-5h4V869h1v121l-4-1v2l2 1-1 3h-2v2l2-1h7l1 33V922l-1-26v-33l-1-50v2l1 56v100l-1 18h-1v-75l-1-21v-56l-1-3c-1-37-3-81-32-108l-10-8v-2l-2-1-9-5c-24-16-51-18-80-18h-19l-16-1h-19c-13 0-26 0-37 10l-7 10-1 3-1 2h39c42 0 84 2 116 32q21 25 27 57v3c5 21 3 42 3 63v112l-1 4-4 1h-3l-2 1q-25 3-43 21l-4 7-2 2-4 10-1 4q-4 22-3 44v53c0 24 1 49 19 68q15 14 36 18l3 1 9 3v170c0 47 0 47-3 68l-1 4c-2 14-9 30-20 39q-14 9-31 8-13-4-25-10l-3-2q-16-8-30-18l-4-3-47-34-6-4a517 517 0 0 1-52-44l-41-36-13-12-8-6-18-15-8-6-26-19-4-3-10-6-10-6q-43-28-92-45l-3-1-27-9-3-1q-25-7-51-11l-4-1a421 421 0 0 0-87-5q-24 0-48 2h-3l-8 2h-3l-29 5-3 1q-21 3-43 11l-3 1c-59 20-117 51-166 91l-5 4-3 2-4 4q-14 11-27 23l-10 8-19 17-12 11-2 2-7 4v2l-5 4-3 2-1 2-8 6-16 13-9 7-30 23-8 5q-75 57-163 89l-4 1a449 449 0 0 1-101 26h-2l-11 1q-19 3-34 14l-3 2-7 5-35 24-1 1q-10 7-15 18-2 14 6 25 11 9 26 7l12-1 15-2q56-6 108-25l2-1 15-5 3-1 41-17 2-1 15-7h6l-1 1-6 6-1 2c-8 8-8 8-14 17l-1 2q-2 6-2 13v186q-1 14 8 25 9 9 23 9h18q19 2 33-10l9-12 3-5 2-2 5-7 2-3 3-5 12-16 1-2q11-13 18-30a225 225 0 0 1 25-38c36-56 36-56 54-68l6-1h819c12 0 12 0 17 4l3 4 1 2 4 4 2 2 15 19 2 2 16 22 4 7 10 13 2 3 6 8 3 5q6 9 9 17l3 5 1 2-1 2-9-14q-5-11-12-20l-2-3-15-21-3-5-32-40-2-3-2-3-2-4-2-1-4-2-8-1H704l-34-1h-52c-9 1-14 1-20 8l-2 3-2 2-12 15-4 6-16 22-6 8-15 23-2 3-25 42-2 3-27 37c-8 11-15 22-29 26-16 3-41 5-55-5q-12-10-14-27v-20l-1-11v-145c0-18 1-30 14-43l5-6q-11 4-20 9l-13 5-2 1-34 12-4 1q-36 12-73 20h-3q-32 8-64 8l-3 1q-11 0-20-7-9-10-8-24 2-13 12-21l15-11 17-12 11-7 5-4 5-3q14-10 33-12l7-1 7-1a461 461 0 0 0 162-52l7-4q27-14 53-30l8-5 11-7 27-19 11-8q15-9 27-21l8-6 15-12 3-3 2-1q4-5 6-4l1-3 5-4 14-13c9-8 9-8 12-8l1-3 3-3 2-2 3-2 5-4 3-3 12-10 3-1 1-3 5-4 3-3 3-2 4-3 4-2v-2l4-3 7-5q28-23 60-41l2-1q44-28 93-45l2-1 14-4 5-2q60-19 123-19h21q33-1 66 4h4l35 7 3 1a397 397 0 0 1 84 28l27 13 11 5a224 224 0 0 1 38 23q30 18 55 40l8 7 27 23 11 9 2 2v2l2 1 7 5 12 11 2 1v2l2 1q4 1 7 6l3 2 3 3 24 20 11 8 2 2v2l2 1 8 5 22 17 8 5c38 30 38 30 84 41q15-2 25-14l6-11 1-2q6-13 7-26v-3l2-26v-3l1-59v-139l-3-1-2-1-9-3q-28-7-44-31c-11-24-10-49-10-74v-56c1-20 5-40 20-54q18-14 40-18l7-2q3-75 0-151v-3c-2-30-10-61-33-82q-23-19-53-25l-2-1q-23-3-47-2h-41q-5 2-8 6l-2 4-1 2-1 2-1 3-4 11c-14 36-28 60-63 78l-2 1q-11 6-24 5h-3q-15 0-27-11l-5-6-2-3q-17-25-22-55l-1-4-18-83-16 91-5 29-2 9-10 45-1 3-8 20-1 2q-11 27-37 37-16 5-31-1c-18-10-26-27-32-46a235 235 0 0 1-10-49l-1-11-2-8-2-15-10-65-4-30-14-105-5-35h-1v4l-1 4v3l-2 15-4 37-2 18v4l-2 25-2 19-2 19-4 34-2 23-1 4-1 16-2 12v7l-1 3-1 8-1 7v6l-3 28-2 21-2 16-2 25c-15 141-15 141-39 162q-15 9-34 7-17-4-27-20-15-26-18-55l-1-4-2-25-2-15-2-25-1-4-1-11-1-20-1-3-3-36-2-23-1-11-2-26-4-44-2-26-2-23-2-20-2-28-2-24-2-30v-2l-1-6v-6l-2-14v-6l-1-10-4-56-1-3-1-16-1-12v-7l-1-3-1-3-4 39-18 178-2 22-3 31-11 95c-11 118-11 118-39 144q-15 11-35 8-25-4-42-22c-15-21-20-47-24-72l-1-2-15-107v-2l-3-26-5-35-4-32-2-18-1-7-1-6-1-7v-2q-1-6-3-10l-4 23-9 45-3 14-14 76-2 9-10 31-1 2q-9 24-32 34c-16 6-32 1-47-4l-4-2q-12-3-22-10l-2-1c-13-9-24-26-27-41v-3q4 3 5 8 10 30 39 42l18 6 3 1q21 9 42-1l9-7 2-2q10-10 14-22l1-2c12-30 16-63 22-94l6-33v-2l1-5v-2l1-2 6-33v-2l8-45 2 1 1 7 1 3 1 8 1 6 8 66 3 27 1 9 4 29 3 19v7l1 3c5 92 5 92 45 170 13 9 31 14 46 12q17-4 28-18c12-17 16-36 20-56l1-3 2-22 4-37 4-35v-2l2-23 1-8 1-6v-4l1-3 1-8v-4l1-3v-3a1718 1718 0 0 1 14-133v-7l2-19 3-33 1-3 8-79c2-30 2-30 4-33m776 668v27l5-2q10-3 22-4h3q16-1 30 5h3v-23h-7l-15 2h-2q-17 1-32-3z"/><path fill="#d4a07a" d="m874 245 2 2 3 1q5 2 7 7l2 2v6l1 6q3 5 2 12l1 5-1 2 3-1 1 2-1 2v10l1 5 1 5v6l2 15v15l2 1v10l1 11 1 7 3 56 2 1v2a849 849 0 0 0 5 113h-1l-9-115-4-49-1-19-1-10 1 28v4l1 9 1 12 3 45 1 4 2 44q0 24 3 47l1 13 1 14 4 51v3l4 47 2 18 1 4 2 23 10 106 1 17 3 26 4 42-2-21-2-33-1-26h1v4l1 5v2l2 12 1 6v8l1 8v3l1 6v7l1 7 1 9 1 5v22h2v10l2 10q0 13 3 26l3 15 2 10 1 4 1 3 1 4 4 7-1 4 3 1 1 5 1 2v2q-5-6-8-13l-1-2-9-26 2 14h2l2 5 1 3v7q4 11 13 19h5l1 3 2 2q-2 5-8 5l-3-1 2 1 2 1 3 1 3 4q14 2 25-5l3-4h2l1-2 4-7q10-17 14-37l1-3q3-11 2-23l2 1-1-3v-8l1-2v-6h-1v-18l-3 14v7l-4 34-1 3q-2 12-8 23h-2l2-9 7-34v-5l2-13 1-8 6-56 1-18 1-10 2-11v-2l2-16 4-27 1-8 3-26-1 6h-1l2-23 7-63 2-18 5-47v-3l3-29v-2l2-15 2-25 1-9 4-34 1-15v-3l2-18 1-7c3-34 3-34 7-46h2v6l-2 12-3 22v2l-7 65-3 29v3l-15 147-11 102-4 43-3 28v3l-2 11-1 24v-3a1298 1298 0 0 1 18-130l1-12 4-33 2-23 1-14 4-32v-3l3-33 1-3 1-18 1-6v-3l2-15 2 1 3-26 3-29v-4q1-13 5-27h1q2 17-2 36a1042 1042 0 0 0-10 97l-4 40-2 21-2 22-6 60-2 11-3 30-6 53-2 24-7 66-1 4c-8 61-8 61-27 77q-16 11-36 7-20-7-28-27c-16-34-17-75-20-112l-8-82-1-20-1-7v-7l-1-7-1-7-1-3v-9l-1-4-4-54-6-72-1-10v-12l-1-3-1-8v-10l-1-4v-4l-2-36-1-3-1-14-1-19-1-5-4-55v-4l-1-14-1-11v-3l-2-14v3l-2 14v3l-7 61-6 68-1 8-9 81-4 43-1 2-3 38-3 22v4l-1 9-2 22v3l-5 46-1 4v3l-1 13-3 21-1 4c-4 22-11 48-30 62q-19 11-39 5-24-4-39-25c-28-47-28-116-34-169l-1-6-1-8-2-21-4-26-1-8-1-11q-5-45-12-91l-3 19-1 6-1 3-2 12-4 23-9 49-4 19c-17 93-17 93-39 114l-2 2q-13 10-30 10l-24-7-5-2q-24-6-39-25v-2h2l1 4h2l2 3q5 5 12 9l2 1q10 7 23 4l7-3 2-1c14-7 20-20 26-33l2-4-5-2 5-19h4l9-39 1-5 5-27c11-57 11-57 17-78l2-12 4-19q4-14 6-29v-3l1-2 2-7h1q0 16-4 31l-1 5-7 30v4l-4 16-1 6-1 2v3l-1 2v5l1-2q6-21 15-41l5-16 5-10 1-2 2-5h-2q1-9 5-18l1-4q1-10 7-16v-6h-2q-10 25-16 52l-3 8-4 17h-2l-1 4-5 15v-8l1-3 1-4 1-7 1-3 2-11 1-3 1-5q2-9 6-14l3-9 3-9 3-9v-4l1-3h2v-2l4-7-3 1v-4l5-1-1-2q-2-9-2-19c0-5 0-5-3-10l-5-1q-3 2-5 5l-1 2-1 2-1-3 1-3q2-4 2-10l1-1-2-1-5 27v3q-4 20-5 39l-5 26h-1v-11h-1l-1-7q-4 19-6 38l-2 8v2l-3 11-1 5v3l-1 3q-1 19-6 37v3l-4 23-2 11c-9 46-9 46-15 64h-1l3-17 1-5 1-3a1296 1296 0 0 0 22-123v-3l4-23 1-3 7-42v-4l3-16 7-43 1-4 6-24 5-1v4h-3v3l-3 14-6 29-3 21q-3 13-3 26v-5l1-3 1-4 1-8v-2l1-5h2v-2q2-19 7-37l1-3 3-11 1-3 1-2-1-6 3-3 4 1q3 4 2 9l1 3v3l1-4-1-12v-9l1 2h2c11 26 13 59 16 87l7 51 3 19 2 24 4 36 2 29h-1l-8-60-3-19-1-6-3-26h-2l-5-30-7-47-3-15 3 24 7 48 1 3 4 24 5 42 5 38 3 23 1 7 3 22 15 99-1-9v-5l-1-2-1-4-1-11-3-32-1-3-3-25-1-9-1-6-1-20 3 6v6l1 3 1 12 2 9v6l1 2v2l2 1v2l2 28v2l8 52v4c5 38 5 38 17 74l2 4 8 15 1 2-1 2-5-1v-2h-2l-3-5-7-10q7 22 26 33 13 4 25 1l-1-2v-3l4-3 2-1 4-3c10-8 17-25 20-37v-3l-4 5-2-3-2 1h-2l-3-3 1-1q4-5 5-9l1-4h1l4-27h1l-2 30 7-42v-6a2025 2025 0 0 0 16-144l15-152 6-57 1-10v-2l5-57 1-9v-2l2-22 1-4 1-14 1-11v-3l1-14v3l-1 10-1 4v10l-2 11-2 24-1 6-1 10-8 89-4 34-1 12-3 31v2l-6 51-1 15-2 12-2 19v2l-6 57-4 35-5 49-4 32h-1l1-27v-2l8-74 1-2 16-150 7-75 4-31 1-14 1-8 3-36v-5l2-9v-6l4-39 2-19c3-22 3-22 4-45h-1l5-47 1-6v-2q0-7 3-12l1-2q2-4 8-6"/><path fill="#dabda9" d="m656 459 1 2h2c11 26 13 59 16 87l7 51 3 19 2 24 4 36 2 29h-1l-8-60-3-19-1-6-3-26h-2l-5-30-7-47-3-15 3 24 7 48 1 3 4 24 5 42 5 38 3 23 1 7 3 22 15 99-1-9v-5l-1-2-1-4-1-11-3-32-1-3-3-25-1-9-1-6-1-20 3 6v6l1 3 1 12 2 9v6l1 2v2l2 1v2l2 28v2l8 52v4c5 38 5 38 17 74l2 4 8 15 1 2-1 2-5-1v-2h-2l-3-5-7-10q7 22 26 33 13 4 24 1l4-2 2-1c14-8 19-23 25-37h-2v-2h3q5-16 6-32l2-13v-3l7-56 3-22v-5l4-24h3v-4l1-17a1162 1162 0 0 0 11-103q0-15 3-28 4-13 4-26c2-18 2-18 5-26l1-8 2-11q3-14 3-29-1-7 5-13l2-5h1l1 14h1l2 23h1q1 16-2 31v5l-1 13-1 8-9 79-4 43-1 2-3 38-3 22v4l-1 9-2 25-5 46-1 7-1 13-3 21-1 4c-4 22-11 48-30 62q-19 11-39 6-24-5-39-26c-28-47-28-116-34-169l-1-6-1-8-2-21-4-26-1-8-1-11q-5-45-12-91l-3 19-1 6-1 3-2 12-4 23-9 49-4 19c-17 93-17 93-39 114l-2 2q-13 10-30 10l-24-7-5-2q-24-6-39-25v-2h2l1 4h2l2 3q5 5 12 9l2 1q10 7 23 4l7-3 2-1c14-7 20-20 26-33l2-4-5-2 5-19h4l9-39 1-5 5-27c11-57 11-57 17-78l2-12 4-19q4-14 6-29v-3l1-2 2-7h1q0 16-4 31l-1 5-7 30v4l-4 16-1 6-1 2v3l-1 2v5l1-2q6-21 15-41l5-16 5-10 1-2 2-5h-2q1-9 5-18l1-4q1-10 7-16v-6h-2q-10 25-16 52l-3 8-4 17h-2l-1 4-5 15v-8l1-3 1-4 1-7 1-3 2-11 1-3 1-5q2-9 6-14l3-9 3-9 3-9v-4l1-3h2v-2l4-7-3 1v-4l5-1-1-2q-2-9-2-19c0-5 0-5-3-10l-5-1q-3 2-5 5l-1 2-1 2-1-3 1-3q2-4 2-10l1-1-2-1-5 27v3q-4 20-5 39l-5 26h-1v-11h-1l-1-7q-4 19-6 38l-2 8v2l-3 11-1 5v3l-1 3q-1 19-6 37v3l-4 23-2 11c-9 46-9 46-15 64h-1l3-17 1-5 1-3a1296 1296 0 0 0 22-123v-3l4-23 1-3 7-42v-4l3-16 7-43 1-4 6-24 5-1v4h-3v3l-3 14-6 29-3 21q-3 13-3 26v-5l1-3 1-4 1-8v-2l1-5h2v-2q2-19 7-37l1-3 3-11 1-3 1-2-1-6 3-3 4 1q3 4 2 9l1 3v3l1-4-1-12v-9"/><path fill="#b25c1e" d="M1494 645h66l31 1h2l18 4 12 2q9 2 17 6l9 3-3-3 12 5 4 2 2 1-1-2q5 1 8 5h-3l7 5q-5 0-9-4l-1 1 2 1c39 26 58 65 67 110 7 41 4 85 4 127v75h-3l1 3-2 1v-3h-5l1-3 6-2-4-1q-3-1-5 3l-2 2-7-2 2 1 1 5 4 1q-3 4-8 3-5 0-11-4v4h-2v16l-1 24h-3l-1 8h-2V917l-1-34v-41c1-16 1-16-2-32l-1-5v-5l-1 5-4-13v-3l-1-3v-2l1-6 1 2v-3l-1-6q-1-9-5-18l-1-6h-2l-3-6-2 2-1-2-7-11-2-5q-22-22-52-30v-2l-3-1h-4l-2-1-9-2q-34-3-68-2h-41c8-8 34-3 45-3h11q24 0 50 2l5 1h4l-3-2h2v-2l-6-1v-1c25-1 49 15 67 30l-2-2-5-7 3-2q-25-22-57-30l-2-1q-28-6-55-5h-52l-30 1-2 1q-7 1-14 3l-6 1q2-5 6-9l2-2 2-2-3-1 5-4 1 2-1 3 2-1q6-4 14-6l10-3q9-2 17-2"/><path fill="#161516" d="M885 422h1l4 50 1 4 4 64 1 3 1 19 2 17v2l1 25 3 31v7l3 28v6l2 22 1 17 1 3 3 40 2 27 1 7 2 16v6l5 54v2l2 19 2 28 2 13 1 10 4 40v3q2 35 21 64l1 2q9 10 22 13 19 2 34-9c25-21 25-65 28-94l4-41 1-11 3-28 14-136 3-26 1-11v-2l1-12 2-15v-3l16-143v-3c1-6 1-6 3-8l2 11v3q6 29 8 58l5 33 2 16 3 20 5 34 1 12 11 73c6 62 6 62 36 114q14 10 31 8 21-5 33-23l7-12 2-3c19-39 22-86 29-128l7-39 1-7 7-33q4 5 4 11l1 3 6 27 6 29 1 5 7 30 1 3c6 22 15 47 36 59q14 7 31 1 10-4 19-9l2-1c29-16 39-41 51-71l7-17v-2l5-9q12-3 26-2h22c40 0 79 4 109 32q21 25 27 57v3c5 21 3 42 3 63v112l-1 4-4 1h-3l-2 1q-25 3-43 21l-4 7-2 2-4 10-1 4q-4 22-3 44v53c0 24 1 49 19 68q15 14 36 18l3 1 9 3v170c0 47 0 47-3 68l-1 4c-2 14-9 30-20 39q-14 9-31 8-13-4-25-10l-3-2q-16-8-30-18l-4-3-47-34-6-4a517 517 0 0 1-52-44l-41-36-13-12-8-6-18-15-8-6-26-19-4-3-10-6-10-6q-43-28-92-45l-3-1-27-9-3-1q-25-7-51-11l-4-1a421 421 0 0 0-87-5q-24 0-48 2h-3l-8 2h-3l-29 5-3 1q-21 3-43 11l-3 1c-59 20-117 51-166 91l-5 4-3 2-4 4q-14 11-27 23l-10 8-19 17-12 11-2 2-7 4v2l-5 4-3 2-1 2-8 6-16 13-9 7-30 23-8 5q-75 57-163 89l-4 1a449 449 0 0 1-101 26h-2l-11 1q-19 3-34 14l-3 2-7 5-35 24-1 1q-10 7-15 18-2 14 6 25 11 9 26 7l12-1 15-2q56-6 108-25l2-1 15-5 3-1 41-17 2-1 15-7h6l-1 1-6 6-1 2c-8 8-8 8-14 17l-1 2q-2 6-2 13v186q-1 14 8 25 9 9 23 9h18q19 2 33-10l9-12 3-5 2-2 5-7 2-3 3-5 12-16 1-2q11-13 18-30a225 225 0 0 1 25-38c36-56 36-56 54-68l6-1h819c12 0 12 0 17 4l3 4 1 2 4 4 2 2 15 19 2 2 16 22 4 7 10 13 2 3 6 8 3 5q6 9 9 17l3 5 1 2-1 2-9-14q-5-11-12-20l-2-3-15-21-3-5-32-40-2-3-2-3-2-4-2-1-4-2-8-1H704l-34-1h-52c-9 1-14 1-20 8l-2 3-2 2-12 15-4 6-16 22-6 8-15 23-2 3-25 42-2 3-27 37c-8 11-15 22-29 26-16 3-41 5-55-5q-12-10-14-27v-20l-1-11v-145c0-18 1-30 14-43l5-6q-11 4-20 9l-13 5-2 1-34 12-4 1q-36 12-73 20h-3q-32 8-64 8l-3 1q-11 0-20-7-9-10-8-24 2-13 12-21l15-11 17-12 11-7 5-4 5-3q14-10 33-12l7-1 7-1a461 461 0 0 0 162-52l7-4q27-14 53-30l8-5 11-7 27-19 11-8q15-9 27-21l8-6 15-12 3-3 2-1q4-5 6-4l1-3 5-4 14-13c9-8 9-8 12-8l1-3 3-3 2-2 3-2 5-4 3-3 12-10 3-1 1-3 5-4 3-3 3-2 4-3 4-2v-2l4-3 7-5q28-23 60-41l2-1q44-28 93-45l2-1 14-4 5-2q60-19 123-19h21q33-1 66 4h4l35 7 3 1a397 397 0 0 1 84 28l27 13 11 5a224 224 0 0 1 38 23q30 18 55 40l8 7 27 23 11 9 2 2v2l2 1 7 5 12 11 2 1v2l2 1q4 1 7 6l3 2 3 3 24 20 11 8 2 2v2l2 1 8 5 22 17 8 5c38 30 38 30 84 41q15-2 25-14l6-11 1-2q6-13 7-26v-3l2-26v-3l1-59v-139l-3-1-2-1-9-3q-28-7-44-31c-11-24-10-49-10-74v-56c1-20 5-40 20-54q18-14 40-18l7-2q3-75 0-151v-3c-2-30-10-61-33-82q-23-19-53-25l-2-1q-23-3-47-2h-41q-5 2-8 6l-2 4-1 2-1 2-1 3-4 11c-14 36-28 60-63 78l-2 1q-11 6-24 5h-3q-15 0-27-11l-5-6-2-3q-17-25-22-55l-1-4-18-83-16 91-5 29-2 9-10 45-1 3-8 20-1 2q-11 27-37 37-16 5-31-1c-18-10-26-27-32-46a235 235 0 0 1-10-49l-1-11-2-8-2-15-10-65-4-30-14-105-5-35h-1v4l-1 4v3l-2 15-4 37-2 18v4l-2 25-2 19-2 19-4 34-2 23-1 4-1 16-2 12v7l-1 3-1 8-1 7v6l-3 28-2 21-2 16-2 25c-15 141-15 141-39 162q-15 9-34 7-17-4-27-20-15-26-18-55l-1-4-2-25-2-15-2-25-1-4-1-11-1-20-1-3-3-36-2-23-1-11-2-26-4-44-2-26-2-23-2-20-2-28-2-24-2-30v-2l-1-6v-6l-2-14v-6l-1-10-4-56-1-3-1-16-1-12v-7l-1-3-1-3-4 39-18 178-2 22-3 31-11 95c-11 118-11 118-39 144q-15 11-35 8-25-4-42-22c-15-21-20-47-24-72l-1-2-15-107v-2l-3-26-5-35-4-32-2-18-1-7-1-6-1-7v-2q-1-6-3-10l-4 23-9 45-3 14-14 76-2 9-10 31-1 2q-9 24-32 34c-16 6-32 1-47-4l-4-2q-12-3-22-10l-2-1c-13-9-24-26-27-41v-3q4 3 5 8 10 30 39 42l18 6 3 1q21 9 42-1l9-7 2-2q10-10 14-22l1-2c12-30 16-63 22-94l6-33v-2l1-5v-2l1-2 6-33v-2l8-45 2 1 1 7 1 3 1 8 1 6 8 66 3 27 1 9 4 29 3 19v7l1 3c5 92 5 92 45 170 13 9 31 14 46 12q17-4 28-18c12-17 16-36 20-56l1-3 2-22 4-37 4-35v-2l2-23 1-8 1-6v-4l1-3 1-8v-4l1-3v-3a1718 1718 0 0 1 14-133v-7l2-19 3-33 1-3 8-79c2-30 2-30 4-33"/><path fill="#d3b69e" d="M433 496v6l-4 3q-14 10-21 24l-2 4-2 4-1 2q-9 17-14 35-5 16-12 31l-1 3c-6 13-15 26-29 31q-3 1-4 5-2 3-6 2l-2-1 3-2-3 1q-16 3-33 2h-58q-4 1-8-2h-1l3 3h-14v2l-4 1q-7 2-13 8l-2 3h-2l1 5h-2l1 2 1 2v13c11 9 25 7 39 7h6l4 1 11-1 14-1 32-1v1l28-2h2q21-2 38-15l5-3q14-13 24-30h2l-1 7 5-3 3-2 6-4 6-3 5-4 1 5 2-2q3-4 6-3v-2q2-4 5-6l2-2 2-1 3 9 2 3q0 10-4 19l-1 3-8 16v2l11-26h4l2-4 4 13 1 4 6 27 4 15-3-18-3-18-12-56v-2l-11-46-1-3v-3l-1-8 3 1 2 7 1 2q8 30 13 61l6 25 9 46 3 13q7 41 19 80l1 2 6 14 3 5 1 3 2 7q-3 0-5-2l-7-9 1-2 2 2-2-3q-12-24-16-50l-4-19v3l1 9-3-8-1-3-1-5v-4l-1-2-2-1-2-8v-2l-1-5-2-8-3-15-1-5-3-13q-4 4-5 9-5 9-13 17l-3 3-2 2-2 2a83 83 0 0 1-42 19h-2q-32 5-65 4h-35q-19 1-34-6l-6-2-31-13-2-1c-10-4-21-10-25-21q-2-11 3-21 12-14 31-16h24l14-1h30c30 0 30 0 56-14q16-20 24-45l4-11 1-2c14-39 14-39 28-55l2-2c5-5 13-12 20-12"/><path fill="#d4c2ba" d="m1090 493 2 1v8l-1 7q0 11 4 23l1 4 3 12-3-24-2-14q8 17 9 36l2 16 1 3 4 24 6 41 5 36 5 35 13 88c7 54 7 54 34 99q14 8 30 6 17-5 24-21 10-19 16-40l-1 1h-2l1-5v-3l1-2 2-1 1 2q14-66 25-132 4-33 12-67h2v-2l3-10 4-1-1 3-3 21-2-2 12 31 12 27 2 4 2 4 1 3q2 4 5 4 5 13 7 27l3 12 2 8q3 12 8 22l3 5q8 21 27 30l13 1h2q11 1 19-5h2l2-4h3v-2l3-3 2-1 2-1c-6 15-29 24-43 30q-17 7-34 0c-18-10-28-30-34-49l-1-3-8-31-1-4-1-8-5-22-8-37-1-3v-4l-2-5-5 20v2l-16 91-1 4-2 13q-4 30-14 59l-1 3q-7 21-22 38l-2 2q-15 13-35 12-17-2-28-16l-4-6-1-2c-19-32-20-77-26-112l-2-17q-4-18-6-38l-5-35-1-6-4-26-1-14-13-93-1-4q-3-16-1-34l1-3z"/><path fill="#aaa5a0" d="M1050 1415q19-1 38 3v1h-12l-14-1h-7l-4 2v163h99l11-1h10l4-1 1-7v-11l1-10v-103l10 4 3 2 3 3v34l1 17v115h3v-63l1-15v-28h1v102c-1 5-1 5 2 10l2 1q0 4-3 8-12 6-25 4h-115q-9 1-16-3l-1-2 3 1 9 1h138l-1-3h-2l-1 3h-101l-12 1h-17c-9 0-9 0-12-3l-3-6h-2l-1-3h3l1-2 6 3 8 1h129l1-3h-2l-7 1h-124q-4 0-7-3l-1-11v-187z"/><path fill="#443c44" d="M1761 991q17 2 29 12l2 3-11-5 2 1q9 7 15 17l2 3q5 8 6 17l1 2q3 20 2 40v28l-1 53v3q-2 19-13 33l1-2 6-9 1-2q7-14 7-28l2 2 2-4c-1 17-1 17-3 23l-1 3q-7 23-28 36l-18 5-2 1-12 1h-4v211l-2 43h-1v-244l-1-17v-18l-1-11v-24h1l2 14v9h1l1-5 4 4v6h4l-2-1v-12q5 3 6 8v9h2v-3l-1-13 2-1h2l3-1 3-3h-2l-1-5h-2l-1 3-7 1v2l-3 1-1-3h-5v2h-2v-4l3-1 1-2 7 1v-2h2v-5l-5-2v-3h-2v-2h2v-2l2-30h-2l2-7h8v-28l-1-13v-27l1-5h5q5 18 3 37v40l-1 17v16l-1 12 2 1q5-10 5-22v-36l1-33h1v7l1 2v8l1 9 1 2v14l1 6 1 12v-9l1-3v-4l1-6v-32q0-16-2-32v-3l-2-6q-2-2-5-2l-1-2 1-2-3-1-5-5q-4-2-10-3h-5v-11l-3-12-1 3h-2v6h4v18h2l1-3v4h2l5 3 1 4-1 2-14-3v-4h-2v-28l1-7h3l13-3z"/><path fill="#5e4c43" d="m817 1471 2 1v2l1 58v81l1 6v3q0 4 3 6l-3 3 1 2h-2v2l-3 5-3 1-3 1-5 1-1 3H702q-8-1-15 2l-2-2h-37l-1 2-2-1v-1h-2l-2-1h-3l-2-1-1-3 5 1v-2l5-7 4 1-1 2 22-1c-8-3-8-3-17-3v-3h4v-2l3-5v-2q3-4 7-7l10-10h2q3-5 3-11 1-4 6-7l2-2 2-2 1 2h116l1 27 1 11 1-26v-23l1-19v-67h1l1 13v-6l1-7-1-5 1-5 1-3z"/><path fill="#aca49d" d="M1000 1423h1v194q1 6-3 11-4 3-8 2H873l-4 1-3-1h-3q-5 0-7-4l2-1-1-19h-1v-108l-1-12v-25q2-5 6-8l4-2 3-2 3-1 8-4 6-3 5-3h6l-10 5-3 1-3 2-3 1-4 1v129l3 4 7 1h113l3-1v-45l1-25v-88"/><path fill="#736c6e" d="m806 1335-2 1q-31 16-61 37l-4 3q-29 19-54 43l-4 1v87l8-6 2-1 1-2 2-2 6-6 22-21 5-5 14-12 8-6 25-20 2-2c30-22 30-22 33-22v24q6 1 7-3 1 5-1 9l-1 2h-4l-1-1-1 3v-2l-13 9-14 10-35 27-28 24-3 3-16 15-9 9-25 24-2 2c-9 8-9 8-17 18l-4 2-2-4-1 2-1 2-1 3-3 3q-2-5-1-11v-2c0-15 0-15 3-18v7q3-3 2-8l4-1-1 4-1 4-1 3-2 1-1 3h4v-6l4-3q3-7 2-15v-18l1-17v-49h2l-1-6-2 6h-1v-7l1-4h2l7-5 10-9 12-10 13-12 7-6q46-37 97-65l6-4z"/><path fill="#373a4a" d="m1661 1032 2 1-1 1q-5 6-8 13l-2 3v44l-1 33v7c0 16 1 30 12 43l-2-3-2-4-1-2q-4-9-3-19v-85l1-17q4 7 3 14v12c-1 7-1 7 2 13q14 8 31 7h7q13 1 24-5l3-1v35l-14-7-18-1h-4c-14 0-14 0-26 5l-2 2-3 2v20q-1 14 5 24l8 5q4 1 7 7c2 12 3 31-3 42q-4 4-9 3-7 0-14-3l-2-1-8-3v-2l-3-1q-16-7-24-24c-10-22-8-47-7-71v-47h1v3l1 29v43l2 8 2 1 2 4 2 1-1-2v-67l1-11h2l-1-2 1-8v-10l1-5 2-1 3 3v20l1 10v32-2l1-23v-28l1-6v-3l2-7h3l1 4 4-1-4-2 1-6-3 1 5-10h8v2h2v-2l2 1h2l4-4zm0 58v27l5-2q10-3 22-4h3q16-1 30 5h3v-23h-7l-15 2h-2q-17 1-32-3z"/><path fill="#994b1d" d="M870 261h4v13h-1l-1-6-1 4v10l4-2v8l-2 2-2-1v-2h-2v9l-1 3-1 13 1-2 2-1 4 1h-3 2q5 2 5 7l1 5v-12h-3l-3-3v-2l5 1q7 8 7 19c0 5 0 5 2 9l1 5v8l1 2 3 46 1 9 3 40 1 16 2 18v7l1 3 1 15 1 14 1 11 3 47 3 30 1 16v3l1 6 11 135 2 19v6l1 18v36h-1l-6-59-1-7-10-114-5-68-7-81v-7l-2-25v-3l-2-17v-8l-2-12v-12l-4-55 1 29h-1l-3-31-2 4-1-5h-2v5h-3v4l-1 3-2 4v-13l-2 8h-1q-1-12 6-23l7 5v-6l-2-1-2-2v-6l-4-1v2l3 1-2 5 2 1-2 2-5 6 1-15 2-18v-2l1-17-7 61-1 3-3 42-2 21-1 5-1 14-4 43v6l-8 77-3 30q-3 17-3 35l-1 3v2l-1 4-1 8v5l-1 3-4 38-3 28-2 20-1 3-1 7-1 13-1 6-7 56v2l-2 14-1 6v7l-3 4v-9l-2 13h-2l2-23v-4l3-17 3-23 9-87 5-47 2-17 5-52 3-23 1-8 5-57v-3l1-6 14-148 9-90v-7z"/><path fill="#acb1b6" d="M998 1279q3 3 2 7v70q1 4-2 8l-8 1h-5l-2 1c-35 3-71 8-102 23l-15 5v5l-3 1v-2l-4 1 3-3 1-2 5-3 2-6h2l-1-2-1 2-2 1-1 2q-1 3-6 2l5-14 1-5 1-2 2-6h-3q-4 1-6-3-4-6-3-14v-25q-1-7 3-12 11-6 24-10l2-1q42-13 86-17l3-1h6l4-1zm-29 6h-2l-47 8c-24 4-24 4-45 14v55q5 2 8-1l3-1 3-1q49-19 102-23l5-1 1-6v-34q1-6-2-12z"/><path fill="#9ea5ae" d="M1050 1280q42 0 84 11v1l-19-3q-31-6-63-7-2 3-1 6v11l-1 12v27h3l23 1 3 1a359 359 0 0 1 89 24l9 1v-59l-11-3-8-3-3-1-3-1q6-2 11 1l2 1 15 6 7 2q3 0 5 2l1 11v69l2 8 1 1 1-11v-64h2l1 10v14l1 13v38l2-3v12l-2-1-1 8-2-1v-2l-4-8-2-3q-2-3-6-3l2-1 2-2v-2l-5 1-1-2-3-4h-2l2 1 1 6-11-4-24-9-3-1-42-11-3-1-29-3h-6l-13-1q-4-11-3-24v-51z"/><path fill="#a3a7ae" d="m1364 1589 2 2 1 1 2 2 2 2 2 2 4 4 6 6 4 3 2 2q5 4 6 10h2l4 4 2 1-1-4q6 4 7 11l2 3-2-1-5-2-2-1-1-3-5-1v-5h-4v-2h-3q-5-2-9-7l-3-3-2-3-2-2-1-3-2-1-7-7-4-1q-4 2-7 6l-4 4-2 2-7 7-2 3q-9 8-19 8h-11l-8 1h-49q-5 1-8-2-4-5-2-12v-29l45-1h50l10-1h4q9 0 15 7"/><path fill="#afa7a1" d="m692 1581 1 2h116c0 38 0 38-5 44l-8 1h-55q-15 2-28-9l-4-5-6-6-12-13-26 24-1 2-4 1q2-7 7-9l10-10h2q3-5 3-11 1-4 6-7l2-2z"/><path fill="#b1a7a1" d="M600 1582c1 23 1 23-7 33l-4 4-2-1-1 3q-1 4-4 6h-33c-22 0-39-9-58-18q-15-8-31-11h-3l-6-1q16-16 38-15h111"/><path fill="#9da1a5" d="m1449 1583 71-1h30c26 0 26 0 37 8q3 2 3 6l-5 1 2 1 7 4 2 1 3 2 2 1 4 4-18-7-2-1-9-5q-5-1-9 2l-3 2-11 6-3 2-19 8-8 3q-17 8-35 7h-8c-12 0-12 0-17-3l-5-7-2-3-2-3-2-3q-4-9-3-18v-7"/><path fill="#b56031" d="M1097 378c21 15 24 40 28 64l-3-18-1-24q3 6 3 11l1 3 1 6 1 5 3 18c5-8 2-18 0-26q-4-12-4-25 5 4 5 10v4l1 3 2-1-2-2v-6l1-3v-3q4 5 4 12l1 3q6 25 8 51l2 14 2 18q6 36 9 73l4 26 4 32v4l2 14 2 28-2-1-1-9-1-5v-3l-1-8q-7-47-12-94l-3-24-4-31-3-25h-2l-3-22 3 27v6l1 6 3 24 5 37 5 46 1 2v2l4 31 11 85 2 12 11 69 3 16 5 19h2v2l-4 1q-10-28-13-59v-3l-1-7-4-17-1-7q0-14-4-29l-15-107-3-30-1-2-1-12 2 31v2l2 13 2 20 4 32 1 2 1 9 4 27 1 8 3 24 5 33 1 6 5 32h-2v-4h-2l1 10 1 3 4 19-1-12-1-15 4 11c0 8 0 8 4 16v5h-3l4 4-1 2-2-1-1 2v-2l-3 1q-4-8-5-15l-1-3-2-16-3-15-9-53c-5-28-5-28-5-42l3 7v3l1 3 5 33v3l4 25q1 13 6 22l-4-23-7-46-1-5v-3l-3-17-2-20-11-75v-4l-2-28-1-15-4-29-1-4-1-11h-2l-5-22 1 6 1 3 1 26-3-9v-6l-5-30-2-17-1-4-1-5v-6q-2-27-14-51h-2l-3-4q-5-7-14-8-10-1-16 6l-3 3q0-5 2-9 12-9 25-4"/><path fill="#95a2b0" d="m1715 1568 14 3q29 7 57 10c21 2 34 10 51 22l14 10 2 1 10 7 3 2 2 2 2 1v2l-12-5-10-4v4l9 1v1l-20-1h-3l-25-3-3-1-15-3-5-1-10-3-18-3q-23-4-44-14v-2h-3l-10-5-3-2-3-1q1-5 6-8l8-8q2-2 6-2"/><path fill="#b4b9bf" d="M1334 1392c13 6 24 18 35 28l17 15 7 6 6 4-1 2h-1l1 2q3 7 2 13v3q2 11-6 19l-7 10-12 11q-2 2-2 5l1 3-5-2-3-1-3-3-6-1c-8-1-11-4-17-9l-6-5-3-3-3-2-3-2-29-23-34-24-12-8-2-2-8-6v-19l12 7 2 1a433 433 0 0 1 57 44l21 19 6 6 22 22 3 2 1 2 5 2v-68c1-11 1-11-3-20l-8-7-5-4-3-3-10-8-2-1-4-4z"/><path fill="#a59081" d="M461 1678h42v1h-21l1 75 13-19 27-38 11-15 1-2h3l-5 9-1 2q-2 4-6 6l-2 4h-2l-1 3-3 6 1 2-4 7-1 2-7 8h-2l-1 5h-2l-1 2-5 9 1 1 1-2 21-29 7-10 16-21 2 1q-1 7-6 12-19 23-35 48l-2 2-3 5q-3 6-9 11l-4 7-9 15-2 3-6 8-2 5-5 8-10 17-7 12-3-1 1-12 4-2q8-4 10-13l10-17 2-2 3-5 7-12 1-3 2-2 1-2 1-2-1-2-1 1-5 5v-3l-1 2-6 7-3 4-5 8-2 3-2 2-2 2-1 2h-2l-1 3h-2l7-10 13-19-10 10-8 9q5-14 16-23l4-1v-2l-4-2 7-2-7-10-12-17-1-2-4-9-2-1q-5-3-7-10-2-15-1-31z"/><path fill="#d5c4ba" d="M1261 514q0 4-3 7c-10 17-13 37-17 56l-9 48-2 14-4 21-2 9-1 6-8 49-11 60-1 3-3 12v6l-3 11h2v4l-1 3-2 4-2-2v-3h3l-1-2h-2v-23l-2-9h-3l-1-9 1 4h2v-2l14-80 3-20 13-68c9-48 9-48 17-63l1-2q9-18 22-34"/><path fill="#ae714c" d="M1594 681c25-1 50 15 68 31l6 6 4 1q7 6 7 13h3c7 3 11 19 13 26l2 12 2 14c6 35 5 70 5 105v116l-1 27h-3l-1 8h-2V917l-1-34v-41c1-16 1-16-2-32l-1-5v-5l-1 5-4-13v-3l-1-3v-2l1-6 1 2v-3l-1-6q-1-9-5-18l-1-6h-2l-3-6-2 2-1-2-7-11-2-5q-22-22-52-30v-2l-3-1h-4l-2-1-9-2q-34-3-68-2h-41c8-8 34-3 45-3h11q24 0 50 2l5 1h4l-3-2h2v-2l-6-1z"/><path fill="#4a617b" d="m1624 1599 14 5 3 1 16 9 25 10 2 1q28 12 58 20l13 4c37 11 37 11 76 15h4v-2h-3l1-5 5 1 2 6h2v2c16 3 16 3 31-1l2-2h2l2-9h-2v-2h-2v-2h4q-2-6-8-10l-1-4 7 4 2 2 2 6h2q-2-10-11-16l-7-3-4-2-4-1v3l5 2v3h-8l-2-1-8-1-1 4h-3v-5h-2l-23-1-3-1h-5l-4-3h9l7 1h3l4-1h-2l-11-2h-3l-4-1-3-1-8-1v-1h8l3 1 15 1 16 1h3l8 1-5-1v-1h5v-3q8 1 14 5l8 3q9 4 13 12 4 11 1 22t-14 15q-7 3-16 1h-3l-13-1-13-2a292 292 0 0 1-71-13l-72-24-7-3-6-2-2-1q-6-2-11-6l8 2v-2l-8-3-20-11 2-1 5 2 3 1 3 2 6 3 3 1 5 1-2-1q-19-8-38-18z"/><path fill="#cac1bc" d="m772 1297 1 2-2 1-45 29-2 2-12 8 23-14 29-18 3-2q7-5 14-5-3 4-8 6l-3 1-3 2q-21 11-41 24l-8 6q-15 10-30 23l-9 7-52 44-9 8-16 14-19 17-40 33-42 32-8 5c-17 13-17 13-21 13q-5 2-11 6-17 12-36 22l-3 2-42 21-4 2-9 4-4 2q-37 16-77 25l-7 2-10 3-6 1-3 1-3 1-7-1 6-3 2-1h3l31-9 2-1 43-14 4-1 37-17 4-2q41-18 78-42l8-5 19-13 11-8q35-24 68-52l9-8 13-11 8-7 10-9 8-7 21-18 11-10 40-32 3-2 10-8 28-20 10-7q17-12 35-22"/><path fill="#c2c5c6" d="M809 1402v24q6 1 7-3 1 5-1 9l-1 2h-4l-1-1-1 3v-2l-13 9-14 10-35 27-28 24-3 3-16 15-9 9-25 24-2 2c-9 8-9 8-17 18l-4 2 4-14 1-2q2-6 4-6l-1 9 8-8 10-9 8-10 10-10 2-2 4-4h2l1-3 4-3 13-13 3-3 2-2 4-3 7-5h2v-2l3-3 3-1 2-2 5-4 3-2 14-10 36-27 2-1 8-4v-7l-24 16-2 1-40 30-19 15-10 8-1 2-3 3-3 2q-4 4-8 4h-4l-3-1h-3l8-10 1-2 4-3 5-5 18-17 5-5 14-12 8-6 25-20 2-2c30-22 30-22 33-22"/><path fill="#8c99a7" d="M1569 1680h39q3 5 2 9v10l-3 17h-2l-2 7h-4l-1 2q-6 13-16 25l-8 13h2l3 4 15 22 15 21 2 3 1 2-1 2-1-2-12-14 1 2 3 5 3 5-1 2-10-15-2-3-1-4-2-1q-6-3-7-10-4-8-9-14l-2-3-4-7 2-1z"/><path fill="#934b26" d="M929 381h1l4 31v5l1 10 1 17 1 14 1-12h1l1 10 1 3v10l1 11 4 51 1 11 2 25v6l4 39 3 35v5l2 21 1 13 1 5 4 41 1 3 1 10v4l5 43v4l1 22h-1l-3-24q0 18 2 36l1 12v3l4 42-2-1-1-6h-2l-4-33-2-33-1-2-1-10-2-22v-2l-3-39-3-30-2-32-1-2-1-13-2-20v-2l-2-28-5-58-7-93v-6l-1-4v-16l-2-1v-3l-1-25z"/><path fill="#a76945" d="m1286 571-1 6-4 11v2l-2 12-6 42-1 9-6 30-3 22-5 23-4 24-5 29v2l-2 11-1 4-1 4v7l1-4 2-10 1-5 1-3 3-17 2-4v6l-1 3-1 5v6l-3 21-1 6-1 5-1 2q0 4-3 8l-1-4-3 10h2l1-5v8l-1 2v3l-1 2c-7 19-15 38-33 49-7 3-18 3-25 1l-4-2-2-1c-16-10-23-28-28-45v-7h2l1 3q3 12 9 22l1 2q5 10 14 17l4 4q5 3 12 4h2l1 2q9-2 17-8-2-2-6-1h-2l-6-1h-6l-5-2h3c7 0 7 0 13-4q8-9 12-20l2-4q7-13 10-28l1-3 7-37 4-23 1-4 1-8h1l-2 22-1 4-1 8-1 8q-4 22-10 43l-1 4-2 7v4l-3 7-2 2q-5 10-12 20h2l1-2 4-6 7-14 1-2q3-6 4-13l2-5q8-20 10-39v-6l3-5v7q4-4 4-9l1-4 1-4 1-4 8-53 3-19 6-32 4-21 7-44 2-13 1-7 1-2v-3l1-2q0-4 5-6"/><path fill="#ecc9a8" d="M848 191h1q1 7-2 14l-1 4-1 2a309 309 0 0 0-11 59l-4 42-1 15-1 7-3 27v3l-2 17-5 53-3 28v2l-7 70-3 27-2 22v6l-1 7-1 19-2 30v6l-2 12-12 108-3 32v3l-2 15v8l-1 6-2 1-1 6q-2 16-7 32v3l-1 2v2l-3 6-3-1 1-1v-5l3-13c7-19 8-41 11-61l2-13 3-18v-3l1-7-2 4 2-23 4-33 4-46 8-75v-2l3-27v-7l6-66 4-42 5-53 20-169v-2c5-24 5-24 11-33"/><path fill="#5d5a66" d="m1395 1445 7 1v100h-2q1 6 5 12l2 1-1 4-6-8 1 4 1 2 2 5 1 3 1 2-1 5-3-3-4-4-2-2-2-2-5-6-14-14-3-3-5-6-8-7-7-7-3-3-13-12-9-9-2-2-5-4q5 0 8 5l3 2 3 3 4 3 11 11 9 8 15 15 5 5 15 15q3 5 7 6-3-13-14-21l-2-3-9-7v-2l-2-1q-4-2-7-6l-7-6v-2l-2-1-5-4-2-1-2-2c-3-4-3-4-8-7v-2l-2-1-5-4-2-1-2-2-4-3-6-5-34-28q11 5 20 12l2 2 7 5 3 2 7 6 3 2 17 14q5 5 13 6l3 1h3l1 3h5v2l5 2-2-3q0-4 3-6l3-3q10-7 16-18l2-2q5-9 3-18v-3q0-8-4-15"/><path fill="#cca38c" d="M1126 392q5 4 5 10v4l1 3 2-1-2-2v-6l1-3v-3q4 5 4 12l1 3q6 25 8 51l2 14 2 18q6 36 9 73l4 26 4 32v4l2 14 2 28-2-1-1-9-1-5v-3l-1-8q-7-47-12-94l-3-24-4-31-3-25h-2l-3-22 3 27v6l1 6 3 21v3l5 37 5 46 1 2v2l4 31 11 85 2 12 11 69 3 16 5 19h2v2l-4 1q-10-28-13-59l-1-3-1-7-3-17-1-7q-1-15-4-29-12-74-19-148l-3-20-3-23-6-52-2-11v-3l-2-14q-1-12-4-25-3-10-3-22"/><path fill="#78351a" d="m1080 479 2 1-2 16-2 31-3 36v2l-3 28v2l-1 16-3 25-5 55v3l-1 10-1 8v2l-2 11v4l-1 3v3l-8 72-2 11v2l-6 48-1 3v2l-8 65h-1l2-44 2-17 1-4 3-25 4-40 6-61 4-36 7-74 1-2 4-40 4-42 1-9v-3l1-6 2-19 1-12v-5l1-8v-2q1-6 4-10"/><path fill="#b59f8f" d="M1740 806c10 10 5 41 5 54v126h7q27 2 47 23 19 30 16 66v71l-1 3-1 11-2-1v3q-3 22-16 37 1-7 5-11 7-12 7-26v-3q2-27 1-52v-29c0-19 0-19-3-39v-2q-3-13-12-23l-2-5-2-1-6-4-2-2-1-1 2-1 7 5 1-1q-12-10-28-12v3l-5 2h-2l-9 1-1 31h-1l-1-24-2 1z"/><path fill="#706d6f" d="M1191 1457q3 2 2 7v29l1 17v115h3v-63l1-15v-28h1v102c-1 5-1 5 2 10l2 1q0 4-3 8-12 6-25 4h-115q-9 1-16-3l-1-2 3 1 9 1h138l-1-3h-2l-1 3h-101l-12 1h-17c-9 0-9 0-12-3l-3-6h-2l-1-3h3l1-2 6 3 8 1h129l3-10v-165"/><path fill="#b6babc" d="m680 1421 1 87h2l-2 4-1 1-7 8-1 1h-2l-1 2-4 7-1 2-6 4q1-6 5-11l2-3 10-12 2-4-1 2-11 11q0-7 5-9l3-2q-1-5-6-11l-1-2-6-8-2-4-2-1q-5-3-6-9l-1-14v-4c0-9 0-9 3-14l8-6 3-3 3-2 9-8z"/><path fill="#415977" d="m1006 1271 5-1 1 3v3l1 4 2 5v27l-1 7v19h-2v-55q-5-2-10 1l-3-8-24 1-4 1-7 1h-7q-35 5-66 15h-3l-27 10-3 1-2 1-1 6 4-3 1 2-1 3v34q-1 8 4 13l7 2-4 14-4 12h2l-2 5-5 4q-2-4-1-8v-33l-1-19v-15l-1-10c-5 0-5 0-9 3q0-8 5-15 14-7 29-12l2-1c104-34 104-34 125-17"/><path fill="#eec5ac" d="m1062 370 4 2-1 3c-27 63-26 145-32 213l-3 29-1 12v2l-9 81v3l-1 4v6l-1 4-8 75-1 8-2 12v5l-1 3-3 36v3l-2 11-1 26-2 1-1 6v2l-1 7c-3 30-3 30-10 41v-10l4-23 2-9v-2l2-14a512 512 0 0 0 9-75v-2l6-56 5-48 1-3 4-38 2-20 2-18 1-11v-5l5-40v-5l1-3 5-49 2-22 4-43 1-9q4-40 16-79h3l1-6-3 1z"/><path fill="#c2cad0" d="M1178 1450q7 2 13 6l1 10v93l-1 10v3l-1 7h-9l-1 2v-2h-2z"/><path fill="#f3c9a9" d="m881 255 2 1q3 10 3 22l1 4 1 11 1 9 2 28v3l5 69 7 88 11 136v3l6 74v21q-4-4-3-10v-2l-1-8v-2l-2-16v-5l-1-11-1-10-5-57-2-30-1-17-1-12-1-11-7-81-1-16-3-51-1-7-1-11v-5l-3-25v-13l-1-7v-2l-1-11h-2l-1-34v-15"/><path fill="#f6d1a3" d="m640 399 2 1-2 2q-7 6-12 14l-3 7-1 2-2 3q-9 20-13 40l-1 3-13 65-1 11-4 21-1 4-2 13v2l-5 29q-9 58-22 115l-3 14c-7 33-7 33-14 40h-8l3-2 4-4-3-1q-1-11 4-23l-4-2 3-1-3-2v-3l4 1-6-5 2-1 2 1 7 1-1 4v2l-2 5-2 20h2l1-4 3-12a940 940 0 0 0 31-159l7-42c19-133 19-133 51-158z"/><path fill="#c9a791" d="M1313 504q23 21 29 52v1q10 38 16 76l5 29 1 2 3 14 1 5v2l1 13 1 8v4l-3-7v-3l-1-3-11-56v-3l-6-34 5 33 1 6 7 36 3 18 11 45 1 5h-2a182 182 0 0 1-12-45l-11-50v-3l-5-29-3-14-2-9-4-24-1-2q-4-21-11-40l-1-2 1-2q8 12 11 26l-4-14-1-3-7-15-1-2q-6-12-17-16v3l2 1 8 4-1 2-2-1-3-2-3-1c-6-4-6-4-13-3h-3l-4 2-5 1 1-4q-9 3-15 11 1-5 5-8l2-2 1-1-1-2-2 2-3 2-2 2-7 5q6-10 17-15 19-6 34 5"/><path fill="#101620" d="m1245 1484 17 11-1 3-5-2 14 11 4 3 6 4 23 20 10 7 1 1v2l2 1 8 6 1 2 12 11-11-12-3-5q7 0 10 5l9 8 2 2v2h2l2 2 13 13 8 7v2l2 1 6 4 2 2 1 3 2 1 8 6 1-2h-2v-2l5 2v2l3 1v2l2 1 6 5 2 2 1 2-3 1-1 4-1 5-5-2-1-3h-2l-3-4-10-11-2-2-6-7-7-6-4-4-10-11-6-5 2 1 1 2 2 2 2 4 2 1h-116v-86c0-6 0-6 2-8l5 1-2-2zm-2 7q-2 5-1 10v73l1 7h107q-3-7-8-10l-6-5q-3-5-9-9l-9-8c-7-8-7-8-15-12v-2l-5-4-3-3-3-2-3-2-16-13-6-4-5-4-2-1c-8-7-8-7-17-11"/><path fill="#0d1522" d="m1244 1330 11 4 3 2 3 2 2 1q25 14 48 30l5 3 12 9-2 2-2-1v-2l-2 1q-6 0-10-5l-5-3-2-2-16-11-3-2-8-5 5 4 3 2 3 2 32 22 2 1q23 17 43 36l2 1q2 5 1 10v77q-6-1-10-6l-1-2-5-5-7-7-2-2-16-15-13-11-3-3-4-3-10-10q-24-20-51-37l-2-1-2-2-3-2v-61l2-6h5l-4-2zm-1 8-1 8v27l-1 13v3c0 8 0 8 3 14l8 5q27 17 50 37l2 1 31 29 4 3 3 1 1 3 4 3 13 14 7 5 1-58v-6c0-10 0-10-4-20l-4-3-3-2-2-2-7-6-11-9-2-2-26-19-16-11-6-4-21-13-3-2c-10-6-10-6-20-9"/><path fill="#2f2d30" d="M806 1426v7l-6 5-5 2-2 2-10 7-2 1-38 28-2 2-2 2-5 3-4 2v2q-4 5-10 7-4 2-6 6l-4 3-9 9-8 7-23 24-10 10-5 6-6 4q1-12 9-20l4-3 7-7 10-10 5-6 17-14 24-21 31-25 2-2 38-25 6-4z"/><path fill="#e4b79f" d="m1096 430 4 10h2v10l1 5v4l1 3 1 11 3 19 2-2q2 8 0 16l1 7v7l1 3 1 8 2-2 2 10v3l1 16-2-4v4l4 30 15 109v-9h1l2 21h-1l4 35 1 6 15 90-2-1-2-9-1-3a1589 1589 0 0 1-27-171l-4-34-1-8-3-18-8-58v-2l-3-21-4-31-2-22-2-14q-3-8-3-17z"/><path fill="#181415" d="M803 1481h2c-1 6-1 6-3 8l-1 1 6-1q3 5 2 12v75l-1 7H695l-6 2-2 2-3 3-3 2-5 6-2 2-4 2-1 2-4 5-2 2-2 2-2 2-5 5-3-1-3 9h-1c0-10 7-16 13-22l8-9 5-5 16-14 10-10 4-4h2l2 5v-2l3-3 8-7 2-1 3-3q4-5 6-4v-2l4-3 12-11a274 274 0 0 1 39-31l-3-3 19-14zm-17 23-9 7-2 1-14 10-2 2v2h-2q-4 2-7 6l-25 21-4 4-7 7-9 8-2 2-2 2-2 1-1 4h105l3-1v-25l1-12v-44l-1-8c-7 0-15 8-20 13"/><path fill="#77675e" d="m853 1627 3 2v2l10 1h33l32 1h64l4 1v-2q0-3 4-5l6 2v2h2l-2 5-2-1-3 4-6-1-1 3H868q-12 1-19-7l-2-2 1-3 4-1z"/><path fill="#435166" d="M1442 1475h2l2 4 2 2 3 6 4 5v2l-3 1 2 2 17 13q-3 1-7-3l-1-1-3-2-4-3-1-2-4-2v49l-1 15v16l-1 13h-1v-93h-3v48l2 63v4l2 3 2 2 2 2 1 2 13 16h135l-130-1v-2h129l4 2v4h-54l-26 1h-50c-9 0-9 0-12-3l-4-6-5-6c-12-14-12-14-12-20h2v-4l-1-39v-72h-2v-2l-2-1-10-4v-2q6-1 11 3v-6h2z"/><path fill="#cacfd1" d="m869 1452-1 2v125h-7l-3-1v-118l1-6c6-3 6-3 10-2"/><path fill="#253142" d="m1403 1393 10 7 25 22 6 5 25 23 1 1 10 5 6 5 4 3 1 2 8 6 3 2 6 5-2-6 10 7 21 15 2 1 2 2 2 1v3h-2l2 2 9 5 4 3 41 28 2 1v2l3 1q3 1 5 4l1 3q-7-2-13-6-3-3-7-3l-13-8-2-2-5-3-42-30-2-1-10-8-3-2-20-16-8-7a619 619 0 0 1-54-48l-22-20z"/><path fill="#04080c" d="M987 1417h3l8 1q2 4 1 9v152l-1 4H890l-4 1-11-2q-4-8-3-15v-15l1-11v-93l11-5 5-2 24-10 3-1q35-12 71-13m-39 7h-2q-36 8-68 24l-3 2v126l2 4 7 1h109l4-1v-156l-1-5c-10-7-37 3-48 5"/><path fill="#e8be96" d="M1684 685c9 1 17 14 22 21l11 18-2-7q6 3 8 8l1 2a157 157 0 0 1 15 47q2 14 1 28h-1l-3-21 1 6v6l1 6q3 44 2 89v152h-1l-1-60v-63l-1-25v-14l-1-58v-2q-1-22-5-43l-1-3a170 170 0 0 0-46-87"/><path fill="#edc5aa" d="m1266 519 1 3h-2l-1 2-3 9q-5 14-7 28l-1 6q-10 44-17 87l-3 20-1 4-2 12-4 24-5 31-1 3-5 26-2 15-1 4c-5 24-5 24-10 34h-1l1-10 6-23v-3q7-35 12-70l5-29 2-10 17-93q1-16 6-31l1-4q3-20 15-35"/><path fill="#0b1016" d="m806 1335 3 9v4l1 26c1 25 1 25-4 32q-6 5-15 9l-8 5-2 2-2 1-2 2-17 13-5 4-26 22-6 5-23 22-1 1-8 8-2 3-3 2q-2 2-5 2v-34l-1-30v-6c0-15 0-15 3-20l6-4 4-3q24-20 50-38l3-2 35-23 4-2c17-10 17-10 21-10m-9 6-3 2-4 1-3 2-24 15-3 2-9 6-13 9-41 31-3 2v2l-2 1q-6 2-9 8l-1 18v6l1 14v43l4-2v-2h2l3-3c11-13 11-13 15-15v-2h2v-2l2-1 9-7 15-14 8-6 22-18 2-2 28-20 6-4 2-2 3-3v-57l-1-5q-5 0-8 3"/><path fill="#eeb992" d="M1690 770c5 5 6 15 7 22v3l3 37v2l1 54v134l-1 4v7l-1 7h-2V918l-1-33v-18c1-46 1-46-6-91z"/><path fill="#b6bcc2" d="m1178 1306 11 5q5 13 3 28v41l-1 7h-2l-8-21 3-1 1-2h-7z"/><path fill="#616e80" d="M1629 1614q7 2 10 7l3 3q11 11 17 26l1 2v191h-1l-1-54v-65l-1-26v-43l-2-8h-2l1 2q5 13 3 28v168l-1 7h-3v-2h2l-1-194-2-1-2-6-3-4-1-4 6 4 2-2-4-5-2-3q-2-4-5-4l-3-5-5-4q-4-3-6-8"/><path fill="#777072" d="m1614 1029 1 10-1 3-1 5v9l1-10h1v110l-3-1-1-6v-9l-1-10v-22c-3 47-3 47 12 91l-5-1-2-4-1-3-1-5h-2q-4-4-3-10h-2v-129l2-4v21l1-6v-10l1-6v-4z"/><path fill="#b47347" d="m433 1587 2 2 6-2q-4 4-9 5v-2l-2 1a459 459 0 0 1-67 29q-29 10-59 16l-3 1q-37 8-75 11l-5 1h-17l4-1v-2l5 1-1-5h2l1 3 30-4 16-2q43-6 85-19l11-3 3-1 6-2q7-1 14-6l8-3 13-5 17-8 2-1z"/><path fill="#f9dbac" d="M433 500v2l-4 3q-14 10-21 24l-2 4-2 4-1 2q-9 17-14 35-5 16-12 31l-1 3c-6 13-15 26-29 31q-3 1-4 5-2 3-6 2l-2-1 3-2-3 1q-16 3-34 2h-62v-1l22-1h20c27 0 27 0 54-5l2-1q22-8 33-29l3-6 1-2 10-26q9-33 29-61l1-2c5-5 12-12 19-12"/><path fill="#0d171f" d="M1055 1281h8a402 402 0 0 1 65 10l3 1q23 5 46 14v59q-8 1-14-2l-2-1-4-1-8-3-5-2q-27-10-56-14l-3-1-35-3v-53q0-5 5-4m-2 4-1 13v3l1 34 18 2q49 5 93 24 6 3 11 1v-51q0-2-3-5l-4-2h-3l-3-1-2-1-44-12-6-1-27-4h-4c-14-2-14-2-26 0"/><path fill="#392e37" d="M1696 1117h4q16-1 28 9 14 16 13 37-4-6-5-13l-2-5-3-1-3-4-1-3-1-4-7 1-1 3h-13v-4h-2l-7 1-4-5-8-4-2 4-4-2h2v-4h2v-2l-4-1v-2q9-2 18-1"/><path fill="#f7c497" d="m656 459 1 2h2c11 26 13 59 16 87l7 51 3 19 2 24 4 36 2 29h-1l-8-59-1-9-5-38v-2l-2-10-3-26v-3l-15-84z"/><path fill="#3f5c80" d="M1504 1684h2l3 4 7 10 14 19 7 9 9 12 35 53 7 12 1 2 2 4q5 8 12 11l-2-5 4 3h3l1 3 4 1-1-1v-2h2v-2l1-31h2v30h2v2h-3v2h3v5l-2 1-1 4h2v2l-6-2 1 6h-2l-1-3-3-1-1 2 1 1 1 2q-6 0-10-5l-4-4-2-2-1-2v-6l-10-15-2-2-2-5 1-2 7 11q-8-17-20-33l-4-6-28-40-9-13-16-19c-4-5-4-5-4-10"/><path fill="#bf8c76" d="M1303 589h2q5 10 7 20l1 4 6 36 4 19v4l12 59 1 2 5 22 1 7c-20-26-22-76-28-108v-2l-1-3-9-45z"/><path fill="#ac8e74" d="m470 1534 3 1c-40 33-93 56-141 74l-3 1a467 467 0 0 1-111 27l-4 1h-2l-10 1v-3h3l9-2h4l28-5-14 1q4-3 8-4l4-1 6 1 10-1 4-1 4-1 4-1 8-2 11-3q43-11 85-30l3-1q32-15 62-33l7-5 20-13z"/><path fill="#866959" d="m690 1594 2 2 7 7 9 8 2 2 2 3q5 7 12 9v1l-43 1v-2l3-1 4-4-2-7 1-2h2l-1-2-11 12-5 5-3-1 3-1v-2h3l-4-1-5 5-3 3-3-1 3-1 2-4 3-4 2-1 2-3 2-2 4-3 4-4q3-3 7-3l-3-1 3-2 1-3-2-1z"/><path fill="#c1c7ca" d="M872 1305v59l-10-2q-5-7-4-16v-25q-1-7 3-12l4-2 2-1z"/><path fill="#0b131b" d="M998 1281v57l-25 2q-45 6-86 23l-4 1-2 1h-8v-60l30-10 2-1q46-12 93-13m-29 4h-2l-47 8c-24 4-24 4-45 14v55q5 2 8-1l3-1 3-1q49-19 102-23l5-1 1-6v-34q1-6-2-12z"/><path fill="#e4b296" d="m1286 571-1 6-4 11v2l-2 12-6 42-1 9-6 30-3 20v2l-5 23-14 79-1 5q-3 23-12 42-1-6 1-11l1-2 3-9 4-20 4-19v-2l1-5 8-45v-3l4-24 2-11 1-2 5-32 4-21 7-44 2-13 1-7 1-2v-3l1-2q0-4 5-6"/><path fill="#070708" d="M599 1496v80l-1 7H476l9-7a302 302 0 0 0 50-33 415 415 0 0 0 46-36l9-6 2-2q4-4 7-3m-11 8-2 2-15 12-21 16-3 2-25 18-2 1-19 13-17 13h110l3-1v-81q-5 1-9 5"/><path fill="#efcab0" d="M920 727h1l5 50 11 123 1 15 1 11 5 47 1 4 5 35c-19-19-14-85-16-111l-4-42v-3l-2-17-2-27q-4-27-5-52l-2-16v-13z"/><path fill="#c1ac9f" d="m1660 1048 4 1 3 9 2 3v3h2l1 2 1 3 1 3 3 5v5l3 2v5c13 5 31 2 44-2q-6 6-15 6h-20q-15 2-28-6c-5-5-3-12-3-18v-4q0-9 2-17"/><path fill="#d9baa0" d="m542 1684 2 1q-1 7-6 12-19 23-35 48l-2 2-3 5q-3 6-9 11l-4 7-9 15-2 3-6 8-2 5-5 8-10 17-7 12-3-1 1-12 4-2q8-4 10-13l10-17 2-2 3-5 4-7a522 522 0 0 1 44-64z"/><path fill="#a69c9d" d="M1772 1057h2v2h2v73l1 7v11q-1 10-6 18l-3-1v-2l1-14v-48l1-17v-24z"/><path fill="#a45d2e" d="M474 1661h81v6q-3 2-6 1h-72l-13-2v-4q5-2 10-1"/><path fill="#9fa5ab" d="M1439 1679q5 0 8 2l24 28 24 31 16 23 3 4 8 13 3 5 2 2 5 7q10 12 16 26l12 19 12 20-2 1-1-2-21-31-2-2-7-10c-14-20-14-20-17-29l-8-13-2-3-4-6-7-10-14-20-3-4a364 364 0 0 0-35-43l-2-3-8-4z"/><path fill="#aa9b93" d="m1002 1627 7 2v2h2l-2 5-2-1-3 4-6-1v2H859l-1-3 2-1v2h135v-2l-132-1v-1h52l25-1h55l4 1v-2z"/><path fill="#a29696" d="m1662 1033 2 1-2 2q-7 14-6 30v73c-1 21-1 21 9 39q-8-4-10-12-6-17-5-35v-7l1-15v-57l2-4 2-5q2-6 7-10"/><path fill="#405771" d="M997 1371q-5 3-11 3l-25 3-4 1q-36 4-71 18l-7 3-19 9q7-2 14-6c23-11 23-11 34-11v2l-2 1q-25 8-49 20l-2 1-2-1 1-2h-2l-1 5h-2l1-3 1-7q0-4 2-7h3v3l4 1-1 2 3-2 5-2 2-1 2-1 2-1 4-1v-2l32-11 3-1q27-7 56-11h3q13-2 26-2"/><path fill="#0a090b" d="m1658 1084 10 6q7 3 16 2h15q13 2 24-4l3-1v35l-14-7-18-1h-4c-14 0-14 0-26 5l-2 2-2 1-2 1zm3 6v27l5-2q10-3 22-4h3q16-1 30 5h3v-23h-7l-15 2h-2q-17 1-32-3z"/><path fill="#080b0f" d="M1514 1680h55v71q1 3-2 5l-43-60c-10-13-10-13-10-16m5 2-1 2 13 18 26 35 3 5 1 2 4 5h2v-63l-1-4h-47"/><path fill="#a2a9b5" d="M1694 1147h2v6l1 3 1 7q2 7 1 16v106h-2l-1-33v-8l-1-20v-33l-1-15-1 7h-2l1-29h1z"/><path fill="#c3cdda" d="m1403 1393 10 7 25 22 6 5 27 25 29 24 4 3 28 22 9 6q17 13 35 24l2 2 3 2 9 7q-8-2-15-8l-2-1-5-4-8-5-34-25-2-1-10-8-3-2-20-16-8-7a619 619 0 0 1-54-48l-22-20z"/><path fill="#cbc2be" d="M1780 1000q16 6 22 21l1 2c11 19 8 44 8 65v63q0 26-16 48 1-7 5-11 7-12 7-26v-3q2-27 1-52v-29c0-19 0-19-3-39v-2q-3-13-12-23l-2-5-2-1-6-4-2-2-1-1z"/><path fill="#5c7496" d="m1673 1123 5 2-1 2 1 7-4 2v-3h-2l1 4h2v14l4-1v-14l2 1 2 8v2l1 13-4-8-3 10 3-3h2l-1 4h-2l-10 4-2 1-2-1v-3h2v-2h-3v-2h-2v-3h3l1-4v-4l1-3 4-15h2l-1-2z"/><path fill="#0e0604" d="M482 1680h53l-6 12-2 1-22 30-18 26-1 2-3 4h-1zm1 3v66h2l3-5 2-3 2-3 5-7 2-3 21-29 6-8 1-2q4-3 4-7h-44z"/><path fill="#a9b5c8" d="M1504 1684h2l3 4 7 10 14 19 7 9 9 12 25 38 8 13 13 20q3 7 8 11l4 5-1 2-5-2-1-2-2-3-1-2-3-5-1-2-16-27-2-2-17-25-44-61-3-3-2-3q-3-1-2-6"/><path fill="#1a2b41" d="m813 1329 2 97-7 1v-4l1-38v-54z"/><path fill="#152232" d="M994 1413v1h-3l-55 10h-2l-13 4-2 1c-25 7-25 7-47 20l-7 1-4 1v-2l27-13 2-1c33-13 68-23 104-22"/><path fill="#5d6674" d="m1565 1515 13 7c24 17 24 17 52 24l-2-1q-9-3-17-8l-10-3-7-4v-2q12 3 23 9l6 3 3 2q13 6 25 2-1 4-5 4l-2 2c-29 3-54-15-76-31l-3-2z"/><path fill="#734b34" d="m1348 602 3 6v3l1 3 5 33 1 2 2 9 3 18 2 9 1 5v3l2 7v-5h2l4 19 4 17c2 5 2 5 1 8l-5-14 1 7-3-1-1-5-1-3-1-3-1-3-6-33-3-15-3-16-6-32-1-3z"/><path fill="#818896" d="M877 1368h2l1 3q1 4 5 7l9 1h2l6 1-7 3-11 4-18 7v5l-3 1v-2l-4 1 3-3 1-2 5-3 2-6h2l-1-2 2-8 2-3z"/><path fill="#786257" d="M604 1533h1l1 12v51l-1 9h2q-1 8-6 14l-2 3c-9 16-9 16-16 18v-7l6-6 7-9 2-3c6-10 5-22 5-33v-4l1-11v-34"/><path fill="#7d2a07" d="M1437 715v7l-1 2-1 3-1 2-4 9-2 5-9 24-2 3c-5 12-5 12-10 14l6-15q4-7 4-13l4-13 1-2 11-24h3z"/><path fill="#c2cad7" d="m1320 1491 9 6 20 19 9 8 15 15 5 5 15 15q3 4 7 6l-1-2-1-3-1-3-1-5h2l-1-6 7 10 3 3-1 4-6-8 1 4 1 2 2 5 1 3 1 2-1 5-3-3-4-4-2-2-2-2-5-6-14-14-3-3-5-6-8-7-7-7-3-3-13-12-9-9-2-2-5-4z"/><path fill="#7f8ea8" d="M1472 1634h129l4 2v4h-3v-3l-130-1z"/><path fill="#aebfd6" d="M1695 1479h1c5 18-1 33-10 48q-3 7-6 7l-4-1 5-8q12-21 14-46"/><path fill="#f5cfac" d="M779 794h1l-2 31v3q-1 21-7 40l-3 12-3 7-3-1 1-1v-5l3-13q6-19 8-39v-2z"/><path fill="#cf915e" d="M687 640h1l12 94c3 21 3 21 2 26h-1l-3-19-4-31-2 4v-4q1-21-3-43-2-13-2-27"/><path fill="#617d97" d="M1735 1496h1q0 15-6 29l-1 2-4 9-1 6q8-15 12-31h1l-4 18-1 3q-4 14-15 23v-2h-2l-1 2q-2 4-6 7l5-9q16-26 22-57"/><path fill="#c98862" d="M1231 690h1l-1 18-1 3-1 8-1 6-2 12-7 40-1 4-1 4v4l-3 9-2 10-4 12q-1-5 1-11v-2l3-11 6-30 2-14 1-3z"/><path fill="#946041" d="M472 1653h81l8 1 2 5h-3l-2-3h-69l-6-1c-18 0-18 0-33 7q3-5 8-8z"/><path fill="#779aae" d="m1724 1136 3 1 2 7-11 1h-3l-3 1h-9l-2 12q-3-4-3-9l-2-11h23q3 0 5-2"/><path fill="#4f5b71" d="M1443 1544h2v3l2 61v4l2 3 2 2 2 2 1 2 7 8 1 2 2 1 1 4-1 2-18-22-1-2c-3-5-3-5-3-8h2v-4l-1-38v-20"/><path fill="#ae8c79" d="m1277 653 3 6-1 2-5 20v2l-7 44-6 31-3 14v3l-1 5h-2l3-24z"/><path fill="#b0826b" d="m1646 1033-4 2v2l-2 1q-4 2-5 6v2h2l-1 6 5 2v1h-5l-1-4-3 1-1 10v2l-1 7v31l-1 26h-1v-58q-2-12 3-23l2-6q2-5 8-8z"/><path fill="#793211" d="M1179 758q3 4 3 8l1 3 1 3v4l4 21 2-3v2l1 12 1 4v7l4 8-1 2h-2c-6-10-7-25-9-36l-1-2z"/><path fill="#e7bfa8" d="m1420 682 1 2-2 4q-4 9-6 17l-1 2-2 6-11 28v-8l1-2v-3l1-2 7-21 1-3c5-15 5-15 11-20"/><path fill="#efcfb7" d="m1626 1011 3 1q0 6-3 11-5 13-7 28l-2 6-1 8v7h-1c-1-34-1-34 7-49q3-5 3-11z"/><path fill="#8395b1" d="M997 1371q-5 3-11 3l-41 5-4 1-21 5-6-1q27-8 54-11h3q13-2 26-2"/><path fill="#8698b2" d="M1051 1372c26-1 59 1 83 12q-5 1-11-1-35-7-72-10z"/><path fill="#767f89" d="M1334 1392q15 8 26 20l4 3q6 4 7 9l1 17v6l-1 15v15l-1 30h-1v-67c1-11 1-11-3-20l-8-7-5-4-3-3-10-8-2-1-4-4z"/><path fill="#813d19" d="M803 901h1q0 10-5 18l-1 3q-8 19-25 31l2 1-3 3-4-1 2-1-6-1 7-4q11-5 17-16h2l1-2 2-6 8-20z"/><path fill="#ebd8c7" d="M601 1611h3q-5 16-18 28l-3 1v-7l6-6 9-11z"/><path fill="#c49179" d="M1658 996h6l-1 3-5 1q-15 4-27 16l-1-4c5-9 18-16 28-16"/><path fill="#142435" d="M1054 1413q33-1 64 9v1l-15-1q-24-6-49-7z"/><path fill="#a4b9d1" d="M1733 1145h2l2 7 1 2q4 12 3 26v3l-1 30h-1v-3q0-27-4-54l-1-4z"/><path fill="#687281" d="m1702 1587 10 3q13 7 28 11l1 1 22 6v1q-11 0-21-3l-2-1-26-9v-3l-3-1-9-4z"/><path fill="#6a6766" d="m586 1436 3 1-24 21-6 5-10 8-2-1q6-8 15-14l10-9 10-8 2-2z"/><path fill="#5e7c98" d="M1003 1289h3v51h-2z"/><path fill="#b17c62" d="m1120 576 3 8v2l1 3v4l1 6 1 10 1 7v3l1 17h-1l-2-11h-1l-3-30v-12l-1-2z"/><path fill="#a46b54" d="m1057 735 1 8-1 2v6l-1 8-2 11v2l-4 32v3l-1 6h-1q1-22 4-46l2-20z"/><path fill="#6a5b4f" d="m1176 1623 9 5v2l-68-2v-1l59-1z"/><path fill="#2d4d79" d="M1672 1182h2l1 9v3l-1 4v8l-2 10h-2v-3h-4v-2h2l2-8 1-8 1-7v-3z"/><path fill="#9e9faa" d="m859 1361 6 3h3v3h-3v3q0 7-4 14h-2z"/><path fill="#e3cab5" d="m406 1637 1 6-6 8-2 3h-5q1-8 7-15z"/><path fill="#8f95a1" d="M1512 1680h2l3 5 9 13 19 25 5 7-1 2-19-25-13-17c-5-7-5-7-5-10"/><path fill="#e0a985" d="m1456 696 3 1-2 2-2 4-1 2q-10 14-15 30l-3 8-1 3-3 5c2-17 11-42 24-55"/><path fill="#ddbea0" d="m181 1634 2 1v4l-4 3-8 8h-2q-1-7 4-12c4-4 4-4 8-4"/><path fill="#555c6f" d="M1695 1185h1v62l-1 30h-1l-1-22h1z"/><path fill="#9fa1b0" d="m1397 1546 7 10 3 3-1 4-6-8 1 4 1 2 2 5 1 3 1 2-1 5-7-9v-2h2l-1-2-1-3-1-3-1-5h2z"/><path fill="#8698b0" d="m1690 1586 4 2 3 1 8 5 4 2 3 1 2 2 7 4c-10-1-19-8-28-12v3l-4-1-3-1-3-3h5v-2z"/><path fill="#54657c" d="m1541 1503 10 5 3 2 3 2 3 2 19 14 2 2 6 4-2 1z"/><path fill="#587ea8" d="M1704 1482h2q0 12-4 24l-1 3-3 7-2 1q1-10 4-19z"/><path fill="#b18a75" d="M1171 670q2 4 3 10l1 3v4l1 3 2 23v4q-2-3-2-7l-2-10-2-14v-2z"/><path fill="#dea27d" d="m1674 1005 2 1 1 9v8l-1 4h-2v-2h-2v-5l2 3v-6h-2q-2-4-1-9z"/><path fill="#6f7683" d="m1147 1435 12 3 3 2 3 1 17 8q5 2 9 6l-3 1-5-3-17-9-4-1z"/><path fill="#6c5f60" d="M1768 1093v26l-3 2v-27z"/><path fill="#1c1b20" d="M781 1502q-3 7-9 9l-2 2-5 3-3-1q4-6 10-9l2-2q3-3 7-2"/><path fill="#e6b59f" d="M1395 736q2 5 0 9l3-4-4 12-2 3q-2 4-5 4h-2v-4l3-1q4-2 5-7l-3-1 2-5 1-3z"/><path fill="#ad8368" d="M1105 461h1q3 18 3 37h-1l-2-13v-4l-1-7-1-3z"/><path fill="#b27247" d="m1089 418 5 2-2 1 1 4v3l1 2 2 1-2 4-1-2-3-5-4 1v-6z"/><path fill="#c0cde1" d="M1446 1613h2l3 4 2 2 1 2 4 5 1 2 4 4 2 2-1 4c-18-20-18-20-18-25"/><path fill="#e2d4c9" d="M233 1605h2v2l-4 3-14 11-4 2 8-10 8-7z"/><path fill="#181315" d="m720 1549 5 1-6 6-1 1q-3 3-8 4h-2v-2l5-5 3-2 3-2z"/><path fill="#1e1b1d" d="m739 1534 2 1-11 11-4-2c10-10 10-10 13-10"/><path fill="#c8a190" d="M1101 465h1q4 18 4 37h-1l-2-13-1-4-1-7-1-3z"/><path fill="#617a9e" d="m1750 1178 1 8v5l-4-8-1 7-3-1c1-11 1-11 7-11"/><path fill="#5c5f69" d="m1230 1624 1 3h2v3h3v-2l4 2v4l-2-2-1 4-2-3h-3l1 4-4-5z"/><path fill="#8f97aa" d="M1692 1154h1l1 11h1v11h-1l-1 7h-2z"/><path fill="#89431e" d="m1191 792 4 2v17l-2 4v-8l-1-2z"/><path fill="#cdbeb2" d="m1002 1627 6 3-6 8-2-1-1-6z"/><path fill="#b4a192" d="m853 1627 4 4-2 3-2-1v3h3v2q-5-1-9-6l1-3 4-1z"/><path fill="#a86447" d="M1691 1076q0 7-4 7l-8 1c4-7 4-7 8-8z"/><path fill="#a1adbb" d="M1629 1614q6 2 10 7l3 3 2 4-9-6-2-2z"/><path fill="#574840" d="M645 1553h2l-3 7h-2v2h2v2l2 1-2 5-3-1-1-5v-5l4-3z"/><path fill="#58647a" d="m1590 1542 16 8v-3l5 2-1 3 2 2-11-4-2-1z"/><path fill="#6d7d95" d="m1192 1399 4 2 1 3 3 1v10l-2-1v-2q-2-5-5-9z"/><path fill="#b67448" d="M815 839h2v6l-3 10-1 6h-1q-1-11 3-22"/><path fill="#b48464" d="M1265 522h2l-3 10-4 13c-3-8 2-16 5-23"/><path fill="#c2cfdd" d="M1870 1636q5 2 9 6l3 9h-2l-1-3q-2-5-8-8z"/><path fill="#b29076" d="m554 1674-2 4h-5l1 4h-2l-2 1-1 2-1-2 3-5-4 1q5-5 13-5"/><path fill="#354d70" d="M1042 1365h4l2 7-3-1v-2h-2l-2 4-4-2 1-3 3 1z"/><path fill="#586279" d="M1691 1141h2l3 6h-2v19h-1z"/><path fill="#e3d3c2" d="m810 1627 4 1v4l-4 6h-2v-5l4-2-2-1z"/><path fill="#becede" d="M1646 1641q6 3 8 8v5h-2l-1-2-1-2-1-2-3-4z"/><path fill="#676e78" d="m678 1357 2 1-5 4-2 2-7 4q1-5 5-8l3-2z"/><path fill="#bbd1ec" d="M1672 1182h2l1 9v5l-3-1z"/><path fill="#cea489" d="M1754 992h8v3l-9 2z"/><path fill="#b8c6d3" d="m1690 1586 3 1-1 2 1 5-4-1-3-1-3-3h5v-2z"/><path fill="#cf8762" d="M1395 736q2 5 0 9l3-4-2 7h-5l-1-2 2-5 2-3z"/><path fill="#596a91" d="M1559 1611q-8 5-18 4l3-3z"/><path fill="#2d2620" d="m540 1477 2 1q-7 7-15 12l-2-1z"/><path fill="#c59b81" d="M435 1824h2c1 7 1 7-1 12l-2 2h-4l3-2q2-3 2-7l-1-3z"/><path fill="#bfbcba" d="M1194 1627h2l1 2 4 1-1 4v-3l-3 1-2-1v4h-2l-1-6z"/><path fill="#c4a692" d="m651 1628-1 2-5 1v2l-3 5-3-1c3-7 3-7 6-8z"/><path fill="#b8805f" d="M984 1056h3l1 2h-2v2h-2l-1 3h-5l3-1-1-2v-3z"/><path fill="#b2a49d" d="m1045 1628 4 1-2 6h-3v-2h-2l-1-3h3z"/><path fill="#7f909d" d="m1238 1427 4 4-4 2-5-3v-2z"/><path fill="#787d8d" d="M1400 1563h1l2 8h2l1 5q-4-1-6-5l-2-6h2z"/><path fill="#dde2ea" d="M811 1427h5l-2 7h-3z"/><path fill="#7c7882" d="m1575 1599 9 4-1 2-7-2z"/><path fill="#6c85b0" d="m1673 1536 6 1-1 5-3 2 1-6-5 2z"/><path fill="#c8ceda" d="M853 1400h3l-1 4-1 3-3 3q0-6 2-10"/><path fill="#c6dcf5" d="m1748 1179 3 1v11q-2-3-3-7v-3z"/><path fill="#e1a283" d="m1673 1039-6 3-6 4v-4l4-2 2-1z"/><path fill="#be917a" d="m1626 1011 3 1-1 7-3 2v-7z"/><path fill="#e8a983" d="M1290 604h2v6h-3v2h-2z"/><path fill="#eebfa2" d="M1088 465h5l1 4h-7z"/><path fill="#aeadb3" d="m1236 1628 4 2v4l-2-2-1 4-2-6z"/><path fill="#d6deeb" d="m1192 1399 5 3v6q-4-4-5-9"/><path fill="#a67f60" d="m987 903 1 3q-4 3-9 2l1-3h3z"/><path fill="#e49350" d="m650 509 4 1-1 4-4 2z"/><path fill="#c8cfdf" d="m1003 1366 4 1-1 4h-4z"/><path fill="#6b8cb5" d="m1620 1832 2 4-2 2h-3l1-5z"/><path fill="#b6b7c0" d="m1404 1631 7 6q-5 0-9-3v-2z"/><path fill="#8995a4" d="M987 1415c8-1 8-1 12 2l1 2-1 3-1-2q-5-5-11-4z"/><path fill="#e99e6b" d="M984 941h1v4l-1 3-1 4-3-1 1-3h2z"/><path fill="#b6c6da" d="M1042 1365h4l2 7q-4-1-6-5z"/><path fill="#f6c7a2" d="M1689 991h4v5h-4z"/><path fill="#8690a3" d="M1621 1616h2l4 9-4-3-1-2v-2z"/><path fill="#d4c6c0" d="M645 1553h2q-1 5-5 8h-2q1-3 4-5z"/><path fill="#626d7e" d="m709 1340 2 1-2 2 1 2-7 1z"/><path fill="#93663e" d="m978 893 5 10q-4 0-6-4z"/><path fill="#b5b2b8" d="m1397 1626 4 1 1 3h-5z"/><path fill="#131217" d="m759 1516 3 1-5 5-1-2z"/><path fill="#383431" d="M878 482h1q2 7-1 14h-1z"/><path fill="#794b33" d="M1060 375h2l-1 6h-3z"/></svg>